<?xml version="1.0" standalone="no"?><!DOCTYPE svg PUBLIC "-//W3C//DTD SVG 1.1//EN" "http://www.w3.org/Graphics/SVG/1.1/DTD/svg11.dtd"><svg height="600" node-id="1" sillyvg="true" template-height="600" template-width="600" version="1.1" viewBox="0 0 600 600" width="600" xmlns="http://www.w3.org/2000/svg" xmlns:xlink="http://www.w3.org/1999/xlink"><defs node-id="345"><clipPath id="SVGID_2_" node-id="7"><path d="M 447.20 63.30 C 447.20 63.30 415.70 100.20 430.70 200.00 L 449.40 231.50 C 449.40 231.60 491.20 144.20 447.20 63.30 L 447.20 63.30 Z" fill="#000000" fill-rule="nonzero" node-id="348" stroke="none" target-height="168.3" target-width="75.5" target-x="415.7" target-y="63.3"></path></clipPath><clipPath id="SVGID_4_" node-id="14"><path d="M 494.40 139.20 C 494.40 139.20 438.70 152.20 447.20 231.50 C 447.20 231.60 493.70 235.30 494.40 139.20 L 494.40 139.20 Z" fill="#000000" fill-rule="nonzero" node-id="352" stroke="none" target-height="96.100006" target-width="55.69998" target-x="438.7" target-y="139.2"></path></clipPath><clipPath id="SVGID_6_" node-id="21"><path d="M 403.70 135.90 C 403.70 135.90 387.00 182.60 422.50 231.50 L 445.70 249.10 C 445.60 249.10 459.70 179.90 403.70 135.90 L 403.70 135.90 Z" fill="#000000" fill-rule="nonzero" node-id="356" stroke="none" target-height="113.20001" target-width="72.70001" target-x="387" target-y="135.9"></path></clipPath><clipPath id="SVGID_8_" node-id="28"><path d="M 390.70 201.50 C 390.70 201.50 384.90 268.50 447.50 274.60 C 447.50 274.60 494.80 254.30 494.30 200.10 C 494.70 199.80 450.40 205.60 442.70 239.90 C 442.70 239.90 435.20 216.40 390.70 201.50 L 390.70 201.50 Z" fill="#000000" fill-rule="nonzero" node-id="360" stroke="none" target-height="74.8" target-width="109.899994" target-x="384.9" target-y="199.8"></path></clipPath><clipPath id="SVGID_10_" node-id="36"><path d="M 392.90 228.60 C 392.90 228.60 395.30 279.40 446.30 295.50 C 446.30 295.50 467.60 246.30 392.90 228.60 L 392.90 228.60 Z" fill="#000000" fill-rule="nonzero" node-id="364" stroke="none" target-height="66.899994" target-width="74.70001" target-x="392.9" target-y="228.6"></path></clipPath><clipPath id="SVGID_12_" node-id="43"><path d="M 482.80 234.30 C 482.80 234.30 427.10 253.50 446.30 291.40 C 446.30 291.40 484.90 294.50 482.80 234.30 L 482.80 234.30 Z" fill="#000000" fill-rule="nonzero" node-id="368" stroke="none" target-height="60.199997" target-width="57.799988" target-x="427.1" target-y="234.3"></path></clipPath><clipPath id="SVGID_14_" node-id="50"><path d="M 422.80 274.60 C 422.80 274.60 418.60 298.10 442.00 300.50 C 442.00 300.40 461.70 280.90 422.80 274.60 L 422.80 274.60 Z" fill="#000000" fill-rule="nonzero" node-id="372" stroke="none" target-height="25.899994" target-width="43.100006" target-x="418.6" target-y="274.6"></path></clipPath><clipPath id="SVGID_16_" node-id="57"><path d="M 469.00 273.90 C 469.00 273.90 447.10 272.00 441.20 299.80 C 441.30 299.80 466.40 308.70 469.00 273.90 L 469.00 273.90 Z" fill="#000000" fill-rule="nonzero" node-id="376" stroke="none" target-height="36.700012" target-width="27.799988" target-x="441.2" target-y="272"></path></clipPath><clipPath id="SVGID_18_" node-id="64"><path d="M 212.00 127.20 C 212.00 127.20 169.40 72.30 128.20 127.80 C 128.20 127.80 94.90 183.90 89.30 203.60 C 89.30 203.60 87.50 238.70 64.30 244.30 C 64.30 244.30 10.90 300.30 92.20 391.30 C 92.20 391.30 119.60 417.10 160.00 406.70 C 160.00 406.70 243.10 383.00 224.40 436.60 C 224.40 436.60 182.80 503.20 316.30 516.60 C 316.30 516.60 519.80 519.90 536.40 435.90 C 536.40 435.90 537.50 390.40 439.70 373.10 C 439.70 373.10 377.90 345.60 490.30 358.30 C 490.30 358.30 575.80 373.50 520.60 316.60 C 520.60 316.60 502.10 297.80 551.50 252.90 C 551.50 252.90 588.40 184.00 526.90 162.10 C 526.90 162.10 508.80 156.00 456.50 196.80 C 456.50 196.80 373.40 244.80 402.20 134.40 C 402.20 134.40 415.50 55.70 325.90 80.90 C 325.90 80.90 294.80 95.90 249.20 128.30 C 249.20 128.50 240.60 161.60 212.00 127.20 L 212.00 127.20 Z" fill="#000000" fill-rule="nonzero" node-id="380" stroke="none" target-height="464.2" target-width="577.5" target-x="10.9" target-y="55.7"></path></clipPath><clipPath id="SVGID_22_" node-id="98"><path d="M 212.00 127.20 C 212.00 127.20 169.40 72.30 128.20 127.80 C 128.20 127.80 94.90 183.90 89.30 203.60 C 89.30 203.60 87.50 238.70 64.30 244.30 C 64.30 244.30 10.90 300.30 92.20 391.30 C 92.20 391.30 119.60 417.10 160.00 406.70 C 160.00 406.70 243.10 383.00 224.40 436.60 C 224.40 436.60 182.80 503.20 316.30 516.60 C 316.30 516.60 519.80 519.90 536.40 435.90 C 536.40 435.90 537.50 390.40 439.70 373.10 C 439.70 373.10 377.90 345.60 490.30 358.30 C 490.30 358.30 575.80 373.50 520.60 316.60 C 520.60 316.60 502.10 297.80 551.50 252.90 C 551.50 252.90 588.40 184.00 526.90 162.10 C 526.90 162.10 508.80 156.00 456.50 196.80 C 456.50 196.80 373.40 244.80 402.20 134.40 C 402.20 134.40 415.50 55.70 325.90 80.90 C 325.90 80.90 294.80 95.90 249.20 128.30 C 249.20 128.50 240.60 161.60 212.00 127.20 L 212.00 127.20 Z" fill="#000000" fill-rule="nonzero" node-id="384" stroke="none" target-height="464.2" target-width="577.5" target-x="10.9" target-y="55.7"></path></clipPath><clipPath id="SVGID_21_" node-id="96"><path d="M 254.90 377.00 C 254.90 377.00 244.90 393.50 253.30 410.30 C 253.30 410.30 253.80 418.70 266.30 418.20 C 266.30 418.20 311.00 420.10 318.00 422.10 L 334.10 471.40 C 334.10 471.40 344.10 483.80 349.80 484.00 C 349.80 484.00 347.10 430.30 349.70 411.30 L 354.10 396.00 C 354.10 396.00 357.30 385.90 345.90 381.90 C 345.90 381.90 328.20 378.80 311.60 375.20 C 304.90 373.70 296.90 374.90 297.60 371.30 L 273.10 376.30 L 254.90 377.00 L 254.90 377.00 Z" fill="#000000" fill-rule="nonzero" node-id="388" stroke="none" target-height="112.70001" target-width="112.399994" target-x="244.9" target-y="371.3"></path></clipPath><clipPath id="SVGID_24_" node-id="105"><path d="M 212.00 127.20 C 212.00 127.20 169.40 72.30 128.20 127.80 C 128.20 127.80 94.90 183.90 89.30 203.60 C 89.30 203.60 87.50 238.70 64.30 244.30 C 64.30 244.30 10.90 300.30 92.20 391.30 C 92.20 391.30 119.60 417.10 160.00 406.70 C 160.00 406.70 243.10 383.00 224.40 436.60 C 224.40 436.60 182.80 503.20 316.30 516.60 C 316.30 516.60 519.80 519.90 536.40 435.90 C 536.40 435.90 537.50 390.40 439.70 373.10 C 439.70 373.10 377.90 345.60 490.30 358.30 C 490.30 358.30 575.80 373.50 520.60 316.60 C 520.60 316.60 502.10 297.80 551.50 252.90 C 551.50 252.90 588.40 184.00 526.90 162.10 C 526.90 162.10 508.80 156.00 456.50 196.80 C 456.50 196.80 373.40 244.80 402.20 134.40 C 402.20 134.40 415.50 55.70 325.90 80.90 C 325.90 80.90 294.80 95.90 249.20 128.30 C 249.20 128.50 240.60 161.60 212.00 127.20 L 212.00 127.20 Z" fill="#000000" fill-rule="nonzero" node-id="392" stroke="none" target-height="464.2" target-width="577.5" target-x="10.9" target-y="55.7"></path></clipPath><clipPath id="SVGID_28_" node-id="118"><path d="M 212.00 127.20 C 212.00 127.20 169.40 72.30 128.20 127.80 C 128.20 127.80 94.90 183.90 89.30 203.60 C 89.30 203.60 87.50 238.70 64.30 244.30 C 64.30 244.30 10.90 300.30 92.20 391.30 C 92.20 391.30 119.60 417.10 160.00 406.70 C 160.00 406.70 243.10 383.00 224.40 436.60 C 224.40 436.60 182.80 503.20 316.30 516.60 C 316.30 516.60 519.80 519.90 536.40 435.90 C 536.40 435.90 537.50 390.40 439.70 373.10 C 439.70 373.10 377.90 345.60 490.30 358.30 C 490.30 358.30 575.80 373.50 520.60 316.60 C 520.60 316.60 502.10 297.80 551.50 252.90 C 551.50 252.90 588.40 184.00 526.90 162.10 C 526.90 162.10 508.80 156.00 456.50 196.80 C 456.50 196.80 373.40 244.80 402.20 134.40 C 402.20 134.40 415.50 55.70 325.90 80.90 C 325.90 80.90 294.80 95.90 249.20 128.30 C 249.20 128.50 240.60 161.60 212.00 127.20 L 212.00 127.20 Z" fill="#000000" fill-rule="nonzero" node-id="396" stroke="none" target-height="464.2" target-width="577.5" target-x="10.9" target-y="55.7"></path></clipPath><clipPath id="SVGID_27_" node-id="116"><path d="M 263.00 437.40 L 261.70 500.50 C 261.70 500.50 221.40 502.20 204.70 505.90 C 204.70 505.90 199.70 509.30 207.30 510.40 L 328.40 511.20 C 328.40 511.20 332.90 506.30 322.80 504.70 C 322.80 504.70 312.50 502.20 274.50 500.00 L 275.60 434.30 L 263.00 437.40 L 263.00 437.40 Z" fill="#000000" fill-rule="nonzero" node-id="400" stroke="none" target-height="76.900024" target-width="133.2" target-x="199.7" target-y="434.3"></path></clipPath><clipPath id="SVGID_30_" node-id="124"><path d="M 212.00 127.20 C 212.00 127.20 169.40 72.30 128.20 127.80 C 128.20 127.80 94.90 183.90 89.30 203.60 C 89.30 203.60 87.50 238.70 64.30 244.30 C 64.30 244.30 10.90 300.30 92.20 391.30 C 92.20 391.30 119.60 417.10 160.00 406.70 C 160.00 406.70 243.10 383.00 224.40 436.60 C 224.40 436.60 182.80 503.20 316.30 516.60 C 316.30 516.60 519.80 519.90 536.40 435.90 C 536.40 435.90 537.50 390.40 439.70 373.10 C 439.70 373.10 377.90 345.60 490.30 358.30 C 490.30 358.30 575.80 373.50 520.60 316.60 C 520.60 316.60 502.10 297.80 551.50 252.90 C 551.50 252.90 588.40 184.00 526.90 162.10 C 526.90 162.10 508.80 156.00 456.50 196.80 C 456.50 196.80 373.40 244.80 402.20 134.40 C 402.20 134.40 415.50 55.70 325.90 80.90 C 325.90 80.90 294.80 95.90 249.20 128.30 C 249.20 128.50 240.60 161.60 212.00 127.20 L 212.00 127.20 Z" fill="#000000" fill-rule="nonzero" node-id="404" stroke="none" target-height="464.2" target-width="577.5" target-x="10.9" target-y="55.7"></path></clipPath><clipPath id="SVGID_34_" node-id="155"><path d="M 212.00 127.20 C 212.00 127.20 169.40 72.30 128.20 127.80 C 128.20 127.80 94.90 183.90 89.30 203.60 C 89.30 203.60 87.50 238.70 64.30 244.30 C 64.30 244.30 10.90 300.30 92.20 391.30 C 92.20 391.30 119.60 417.10 160.00 406.70 C 160.00 406.70 243.10 383.00 224.40 436.60 C 224.40 436.60 182.80 503.20 316.30 516.60 C 316.30 516.60 519.80 519.90 536.40 435.90 C 536.40 435.90 537.50 390.40 439.70 373.10 C 439.70 373.10 377.90 345.60 490.30 358.30 C 490.30 358.30 575.80 373.50 520.60 316.60 C 520.60 316.60 502.10 297.80 551.50 252.90 C 551.50 252.90 588.40 184.00 526.90 162.10 C 526.90 162.10 508.80 156.00 456.50 196.80 C 456.50 196.80 373.40 244.80 402.20 134.40 C 402.20 134.40 415.50 55.70 325.90 80.90 C 325.90 80.90 294.80 95.90 249.20 128.30 C 249.20 128.50 240.60 161.60 212.00 127.20 L 212.00 127.20 Z" fill="#000000" fill-rule="nonzero" node-id="408" stroke="none" target-height="464.2" target-width="577.5" target-x="10.9" target-y="55.7"></path></clipPath><clipPath id="SVGID_33_" node-id="153"><path d="M 298.20 247.70 C 298.20 247.70 299.00 255.60 298.30 260.10 C 298.30 260.10 302.50 266.50 299.10 268.00 C 299.10 268.00 297.40 279.90 293.40 281.80 C 293.40 281.80 290.80 281.80 288.20 281.40 C 287.30 280.80 283.10 287.60 284.80 295.50 L 266.00 282.10 C 266.30 280.60 269.20 276.20 267.70 266.90 L 269.50 254.60 L 276.90 248.20 L 283.90 247.50 L 297.00 246.80 L 298.20 247.70 L 298.20 247.70 Z" fill="#000000" fill-rule="nonzero" node-id="412" stroke="none" target-height="48.699997" target-width="36.5" target-x="266" target-y="246.8"></path></clipPath><clipPath id="SVGID_36_" node-id="161"><path d="M 212.00 127.20 C 212.00 127.20 169.40 72.30 128.20 127.80 C 128.20 127.80 94.90 183.90 89.30 203.60 C 89.30 203.60 87.50 238.70 64.30 244.30 C 64.30 244.30 10.90 300.30 92.20 391.30 C 92.20 391.30 119.60 417.10 160.00 406.70 C 160.00 406.70 243.10 383.00 224.40 436.60 C 224.40 436.60 182.80 503.20 316.30 516.60 C 316.30 516.60 519.80 519.90 536.40 435.90 C 536.40 435.90 537.50 390.40 439.70 373.10 C 439.70 373.10 377.90 345.60 490.30 358.30 C 490.30 358.30 575.80 373.50 520.60 316.60 C 520.60 316.60 502.10 297.80 551.50 252.90 C 551.50 252.90 588.40 184.00 526.90 162.10 C 526.90 162.10 508.80 156.00 456.50 196.80 C 456.50 196.80 373.40 244.80 402.20 134.40 C 402.20 134.40 415.50 55.70 325.90 80.90 C 325.90 80.90 294.80 95.90 249.20 128.30 C 249.20 128.50 240.60 161.60 212.00 127.20 L 212.00 127.20 Z" fill="#000000" fill-rule="nonzero" node-id="416" stroke="none" target-height="464.2" target-width="577.5" target-x="10.9" target-y="55.7"></path></clipPath><clipPath id="SVGID_40_" node-id="172"><path d="M 212.00 127.20 C 212.00 127.20 169.40 72.30 128.20 127.80 C 128.20 127.80 94.90 183.90 89.30 203.60 C 89.30 203.60 87.50 238.70 64.30 244.30 C 64.30 244.30 10.90 300.30 92.20 391.30 C 92.20 391.30 119.60 417.10 160.00 406.70 C 160.00 406.70 243.10 383.00 224.40 436.60 C 224.40 436.60 182.80 503.20 316.30 516.60 C 316.30 516.60 519.80 519.90 536.40 435.90 C 536.40 435.90 537.50 390.40 439.70 373.10 C 439.70 373.10 377.90 345.60 490.30 358.30 C 490.30 358.30 575.80 373.50 520.60 316.60 C 520.60 316.60 502.10 297.80 551.50 252.90 C 551.50 252.90 588.40 184.00 526.90 162.10 C 526.90 162.10 508.80 156.00 456.50 196.80 C 456.50 196.80 373.40 244.80 402.20 134.40 C 402.20 134.40 415.50 55.70 325.90 80.90 C 325.90 80.90 294.80 95.90 249.20 128.30 C 249.20 128.50 240.60 161.60 212.00 127.20 L 212.00 127.20 Z" fill="#000000" fill-rule="nonzero" node-id="420" stroke="none" target-height="464.2" target-width="577.5" target-x="10.9" target-y="55.7"></path></clipPath><clipPath id="SVGID_39_" node-id="170"><path d="M 300.10 358.10 C 300.10 358.10 304.50 360.00 322.80 356.00 C 322.80 356.00 334.10 353.20 338.50 354.10 C 338.50 354.10 344.10 355.70 350.90 353.80 C 350.90 353.80 353.70 353.40 354.60 353.10 C 354.60 353.10 357.00 353.20 357.90 353.30 C 357.90 353.30 363.00 355.30 365.00 355.50 C 365.00 355.50 366.90 354.90 364.30 353.40 C 364.30 353.40 360.40 351.00 360.10 350.90 C 360.10 350.90 361.40 351.20 362.10 350.60 C 362.10 350.60 367.50 353.00 369.30 353.80 C 369.30 353.80 371.80 353.90 370.30 351.60 C 370.30 351.60 366.40 349.10 365.30 348.70 C 365.30 348.70 370.30 350.90 372.70 351.70 C 372.70 351.70 375.90 350.60 372.10 348.60 C 372.10 348.60 372.00 347.40 369.70 346.20 C 369.70 346.20 370.80 345.90 371.00 345.30 C 371.00 345.30 373.00 346.50 373.70 344.40 C 373.70 344.40 370.20 341.30 368.10 340.90 C 368.10 340.90 365.20 340.00 364.40 339.40 C 364.40 339.40 363.60 340.20 356.50 337.90 C 356.50 337.90 343.30 339.60 340.10 338.60 C 340.10 338.60 332.30 338.60 329.40 339.40 C 329.40 339.40 321.50 339.40 319.30 338.80 L 315.10 339.60 L 309.30 341.40 L 304.70 341.40 L 302.50 345.30 L 300.10 358.10 L 300.10 358.10 Z" fill="#000000" fill-rule="nonzero" node-id="424" stroke="none" target-height="22.100006" target-width="75.79999" target-x="300.1" target-y="337.9"></path></clipPath><clipPath id="SVGID_42_" node-id="182"><path d="M 212.00 127.20 C 212.00 127.20 169.40 72.30 128.20 127.80 C 128.20 127.80 94.90 183.90 89.30 203.60 C 89.30 203.60 87.50 238.70 64.30 244.30 C 64.30 244.30 10.90 300.30 92.20 391.30 C 92.20 391.30 119.60 417.10 160.00 406.70 C 160.00 406.70 243.10 383.00 224.40 436.60 C 224.40 436.60 182.80 503.20 316.30 516.60 C 316.30 516.60 519.80 519.90 536.40 435.90 C 536.40 435.90 537.50 390.40 439.70 373.10 C 439.70 373.10 377.90 345.60 490.30 358.30 C 490.30 358.30 575.80 373.50 520.60 316.60 C 520.60 316.60 502.10 297.80 551.50 252.90 C 551.50 252.90 588.40 184.00 526.90 162.10 C 526.90 162.10 508.80 156.00 456.50 196.80 C 456.50 196.80 373.40 244.80 402.20 134.40 C 402.20 134.40 415.50 55.70 325.90 80.90 C 325.90 80.90 294.80 95.90 249.20 128.30 C 249.20 128.50 240.60 161.60 212.00 127.20 L 212.00 127.20 Z" fill="#000000" fill-rule="nonzero" node-id="428" stroke="none" target-height="464.2" target-width="577.5" target-x="10.9" target-y="55.7"></path></clipPath><clipPath id="SVGID_46_" node-id="192"><path d="M 212.00 127.20 C 212.00 127.20 169.40 72.30 128.20 127.80 C 128.20 127.80 94.90 183.90 89.30 203.60 C 89.30 203.60 87.50 238.70 64.30 244.30 C 64.30 244.30 10.90 300.30 92.20 391.30 C 92.20 391.30 119.60 417.10 160.00 406.70 C 160.00 406.70 243.10 383.00 224.40 436.60 C 224.40 436.60 182.80 503.20 316.30 516.60 C 316.30 516.60 519.80 519.90 536.40 435.90 C 536.40 435.90 537.50 390.40 439.70 373.10 C 439.70 373.10 377.90 345.60 490.30 358.30 C 490.30 358.30 575.80 373.50 520.60 316.60 C 520.60 316.60 502.10 297.80 551.50 252.90 C 551.50 252.90 588.40 184.00 526.90 162.10 C 526.90 162.10 508.80 156.00 456.50 196.80 C 456.50 196.80 373.40 244.80 402.20 134.40 C 402.20 134.40 415.50 55.70 325.90 80.90 C 325.90 80.90 294.80 95.90 249.20 128.30 C 249.20 128.50 240.60 161.60 212.00 127.20 L 212.00 127.20 Z" fill="#000000" fill-rule="nonzero" node-id="432" stroke="none" target-height="464.2" target-width="577.5" target-x="10.9" target-y="55.7"></path></clipPath><clipPath id="SVGID_45_" node-id="190"><path d="M 265.80 281.80 C 265.80 281.80 263.70 284.50 263.20 284.80 C 263.20 284.80 241.80 298.10 253.70 343.10 L 257.00 350.60 C 257.00 350.60 254.40 373.10 254.10 377.10 C 253.70 381.10 259.40 376.40 270.10 378.30 C 270.10 378.30 288.50 380.10 302.40 373.60 L 301.20 358.20 C 301.20 358.20 301.20 358.30 301.20 358.30 C 301.20 358.30 306.20 350.10 307.30 342.90 C 307.30 342.90 306.40 343.50 315.30 344.50 C 315.30 344.50 317.10 337.80 321.10 339.10 C 321.10 339.10 311.30 336.70 309.20 334.20 C 309.20 334.20 305.40 330.90 303.00 322.50 C 303.00 322.50 298.60 307.50 290.20 297.70 C 289.50 297.30 286.40 295.60 286.40 295.60 L 284.50 289.90 L 284.50 291.30 C 284.60 291.40 273.10 286.00 265.80 281.80 L 265.80 281.80 Z" fill="#000000" fill-rule="nonzero" node-id="436" stroke="none" target-height="99.30002" target-width="79.3" target-x="241.8" target-y="281.8"></path></clipPath><clipPath id="SVGID_48_" node-id="206"><path d="M 212.00 127.20 C 212.00 127.20 169.40 72.30 128.20 127.80 C 128.20 127.80 94.90 183.90 89.30 203.60 C 89.30 203.60 87.50 238.70 64.30 244.30 C 64.30 244.30 10.90 300.30 92.20 391.30 C 92.20 391.30 119.60 417.10 160.00 406.70 C 160.00 406.70 243.10 383.00 224.40 436.60 C 224.40 436.60 182.80 503.20 316.30 516.60 C 316.30 516.60 519.80 519.90 536.40 435.90 C 536.40 435.90 537.50 390.40 439.70 373.10 C 439.70 373.10 377.90 345.60 490.30 358.30 C 490.30 358.30 575.80 373.50 520.60 316.60 C 520.60 316.60 502.10 297.80 551.50 252.90 C 551.50 252.90 588.40 184.00 526.90 162.10 C 526.90 162.10 508.80 156.00 456.50 196.80 C 456.50 196.80 373.40 244.80 402.20 134.40 C 402.20 134.40 415.50 55.70 325.90 80.90 C 325.90 80.90 294.80 95.90 249.20 128.30 C 249.20 128.50 240.60 161.60 212.00 127.20 L 212.00 127.20 Z" fill="#000000" fill-rule="nonzero" node-id="440" stroke="none" target-height="464.2" target-width="577.5" target-x="10.9" target-y="55.7"></path></clipPath><clipPath id="SVGID_52_" node-id="216"><path d="M 212.00 127.20 C 212.00 127.20 169.40 72.30 128.20 127.80 C 128.20 127.80 94.90 183.90 89.30 203.60 C 89.30 203.60 87.50 238.70 64.30 244.30 C 64.30 244.30 10.90 300.30 92.20 391.30 C 92.20 391.30 119.60 417.10 160.00 406.70 C 160.00 406.70 243.10 383.00 224.40 436.60 C 224.40 436.60 182.80 503.20 316.30 516.60 C 316.30 516.60 519.80 519.90 536.40 435.90 C 536.40 435.90 537.50 390.40 439.70 373.10 C 439.70 373.10 377.90 345.60 490.30 358.30 C 490.30 358.30 575.80 373.50 520.60 316.60 C 520.60 316.60 502.10 297.80 551.50 252.90 C 551.50 252.90 588.40 184.00 526.90 162.10 C 526.90 162.10 508.80 156.00 456.50 196.80 C 456.50 196.80 373.40 244.80 402.20 134.40 C 402.20 134.40 415.50 55.70 325.90 80.90 C 325.90 80.90 294.80 95.90 249.20 128.30 C 249.20 128.50 240.60 161.60 212.00 127.20 L 212.00 127.20 Z" fill="#000000" fill-rule="nonzero" node-id="444" stroke="none" target-height="464.2" target-width="577.5" target-x="10.9" target-y="55.7"></path></clipPath><clipPath id="SVGID_51_" node-id="214"><path d="M 421.90 359.90 C 421.90 359.90 419.40 358.60 420.50 356.30 C 420.50 356.30 422.00 352.40 418.10 353.30 C 418.10 353.30 416.70 353.90 415.40 356.90 C 415.40 356.90 414.90 358.40 411.90 357.90 C 411.90 357.90 409.70 358.10 410.10 361.60 C 410.10 361.60 411.20 363.70 408.30 363.20 C 408.30 363.20 405.10 363.10 406.20 367.40 C 406.20 367.40 407.90 371.20 410.90 372.50 L 416.80 372.60 C 416.80 372.60 420.00 372.10 421.20 370.30 C 421.20 370.30 421.90 368.40 420.40 367.20 C 420.40 367.20 418.40 365.20 420.70 363.80 C 420.70 363.80 423.10 363.70 422.40 360.50 L 421.90 359.90 L 421.90 359.90 Z" fill="#000000" fill-rule="nonzero" node-id="448" stroke="none" target-height="20.200012" target-width="18" target-x="405.1" target-y="352.4"></path></clipPath><clipPath id="SVGID_54_" node-id="226"><path d="M 212.00 127.20 C 212.00 127.20 169.40 72.30 128.20 127.80 C 128.20 127.80 94.90 183.90 89.30 203.60 C 89.30 203.60 87.50 238.70 64.30 244.30 C 64.30 244.30 10.90 300.30 92.20 391.30 C 92.20 391.30 119.60 417.10 160.00 406.70 C 160.00 406.70 243.10 383.00 224.40 436.60 C 224.40 436.60 182.80 503.20 316.30 516.60 C 316.30 516.60 519.80 519.90 536.40 435.90 C 536.40 435.90 537.50 390.40 439.70 373.10 C 439.70 373.10 377.90 345.60 490.30 358.30 C 490.30 358.30 575.80 373.50 520.60 316.60 C 520.60 316.60 502.10 297.80 551.50 252.90 C 551.50 252.90 588.40 184.00 526.90 162.10 C 526.90 162.10 508.80 156.00 456.50 196.80 C 456.50 196.80 373.40 244.80 402.20 134.40 C 402.20 134.40 415.50 55.70 325.90 80.90 C 325.90 80.90 294.80 95.90 249.20 128.30 C 249.20 128.50 240.60 161.60 212.00 127.20 L 212.00 127.20 Z" fill="#000000" fill-rule="nonzero" node-id="452" stroke="none" target-height="464.2" target-width="577.5" target-x="10.9" target-y="55.7"></path></clipPath><clipPath id="SVGID_58_" node-id="236"><path d="M 212.00 127.20 C 212.00 127.20 169.40 72.30 128.20 127.80 C 128.20 127.80 94.90 183.90 89.30 203.60 C 89.30 203.60 87.50 238.70 64.30 244.30 C 64.30 244.30 10.90 300.30 92.20 391.30 C 92.20 391.30 119.60 417.10 160.00 406.70 C 160.00 406.70 243.10 383.00 224.40 436.60 C 224.40 436.60 182.80 503.20 316.30 516.60 C 316.30 516.60 519.80 519.90 536.40 435.90 C 536.40 435.90 537.50 390.40 439.70 373.10 C 439.70 373.10 377.90 345.60 490.30 358.30 C 490.30 358.30 575.80 373.50 520.60 316.60 C 520.60 316.60 502.10 297.80 551.50 252.90 C 551.50 252.90 588.40 184.00 526.90 162.10 C 526.90 162.10 508.80 156.00 456.50 196.80 C 456.50 196.80 373.40 244.80 402.20 134.40 C 402.20 134.40 415.50 55.70 325.90 80.90 C 325.90 80.90 294.80 95.90 249.20 128.30 C 249.20 128.50 240.60 161.60 212.00 127.20 L 212.00 127.20 Z" fill="#000000" fill-rule="nonzero" node-id="456" stroke="none" target-height="464.2" target-width="577.5" target-x="10.9" target-y="55.7"></path></clipPath><clipPath id="SVGID_57_" node-id="234"><path d="M 399.60 357.20 C 399.60 357.20 402.60 355.70 401.50 353.00 C 401.50 353.00 399.90 348.30 404.60 349.50 C 404.60 349.50 406.20 350.30 407.60 354.00 C 407.60 354.00 408.20 355.80 411.70 355.30 C 411.70 355.30 414.30 355.70 413.70 359.90 C 413.70 359.90 412.20 362.30 415.80 361.90 C 415.80 361.90 419.70 361.90 418.10 367.10 C 418.10 367.10 415.80 371.60 412.10 373.00 L 405.00 372.80 C 405.00 372.80 400.70 371.50 400.00 369.90 C 399.90 369.90 399.00 367.50 401.10 366.10 C 401.10 366.10 403.60 363.80 400.90 362.00 C 400.90 361.90 397.70 360.60 399.10 357.90 C 399.30 357.50 399.30 357.60 399.60 357.20 L 399.60 357.20 Z" fill="#000000" fill-rule="nonzero" node-id="460" stroke="none" target-height="24.700012" target-width="22" target-x="397.7" target-y="348.3"></path></clipPath><clipPath id="SVGID_60_" node-id="249"><path d="M 212.00 127.20 C 212.00 127.20 169.40 72.30 128.20 127.80 C 128.20 127.80 94.90 183.90 89.30 203.60 C 89.30 203.60 87.50 238.70 64.30 244.30 C 64.30 244.30 10.90 300.30 92.20 391.30 C 92.20 391.30 119.60 417.10 160.00 406.70 C 160.00 406.70 243.10 383.00 224.40 436.60 C 224.40 436.60 182.80 503.20 316.30 516.60 C 316.30 516.60 519.80 519.90 536.40 435.90 C 536.40 435.90 537.50 390.40 439.70 373.10 C 439.70 373.10 377.90 345.60 490.30 358.30 C 490.30 358.30 575.80 373.50 520.60 316.60 C 520.60 316.60 502.10 297.80 551.50 252.90 C 551.50 252.90 588.40 184.00 526.90 162.10 C 526.90 162.10 508.80 156.00 456.50 196.80 C 456.50 196.80 373.40 244.80 402.20 134.40 C 402.20 134.40 415.50 55.70 325.90 80.90 C 325.90 80.90 294.80 95.90 249.20 128.30 C 249.20 128.50 240.60 161.60 212.00 127.20 L 212.00 127.20 Z" fill="#000000" fill-rule="nonzero" node-id="464" stroke="none" target-height="464.2" target-width="577.5" target-x="10.9" target-y="55.7"></path></clipPath><clipPath id="SVGID_64_" node-id="259"><path d="M 212.00 127.20 C 212.00 127.20 169.40 72.30 128.20 127.80 C 128.20 127.80 94.90 183.90 89.30 203.60 C 89.30 203.60 87.50 238.70 64.30 244.30 C 64.30 244.30 10.90 300.30 92.20 391.30 C 92.20 391.30 119.60 417.10 160.00 406.70 C 160.00 406.70 243.10 383.00 224.40 436.60 C 224.40 436.60 182.80 503.20 316.30 516.60 C 316.30 516.60 519.80 519.90 536.40 435.90 C 536.40 435.90 537.50 390.40 439.70 373.10 C 439.70 373.10 377.90 345.60 490.30 358.30 C 490.30 358.30 575.80 373.50 520.60 316.60 C 520.60 316.60 502.10 297.80 551.50 252.90 C 551.50 252.90 588.40 184.00 526.90 162.10 C 526.90 162.10 508.80 156.00 456.50 196.80 C 456.50 196.80 373.40 244.80 402.20 134.40 C 402.20 134.40 415.50 55.70 325.90 80.90 C 325.90 80.90 294.80 95.90 249.20 128.30 C 249.20 128.50 240.60 161.60 212.00 127.20 L 212.00 127.20 Z" fill="#000000" fill-rule="nonzero" node-id="468" stroke="none" target-height="464.2" target-width="577.5" target-x="10.9" target-y="55.7"></path></clipPath><clipPath id="SVGID_63_" node-id="257"><path d="M 418.50 372.70 L 403.30 372.70 L 404.50 383.30 C 404.50 383.30 404.60 385.90 406.40 386.10 L 415.40 386.20 C 415.40 386.20 417.10 386.40 417.30 383.00 L 418.50 372.70 L 418.50 372.70 Z" fill="#000000" fill-rule="nonzero" node-id="472" stroke="none" target-height="13.699982" target-width="15.200012" target-x="403.3" target-y="372.7"></path></clipPath><clipPath id="SVGID_66_" node-id="266"><path d="M 172.40 343.30 C 172.40 343.30 157.20 361.10 164.40 409.30 L 173.50 424.50 C 173.50 424.60 193.70 382.40 172.40 343.30 L 172.40 343.30 Z" fill="#000000" fill-rule="nonzero" node-id="476" stroke="none" target-height="81.30002" target-width="36.5" target-x="157.2" target-y="343.3"></path></clipPath><clipPath id="SVGID_68_" node-id="273"><path d="M 195.20 380.00 C 195.20 380.00 168.30 386.30 172.40 424.60 C 172.40 424.60 194.90 426.40 195.20 380.00 L 195.20 380.00 Z" fill="#000000" fill-rule="nonzero" node-id="480" stroke="none" target-height="46.399994" target-width="26.899994" target-x="168.3" target-y="380"></path></clipPath><clipPath id="SVGID_70_" node-id="280"><path d="M 151.40 378.40 C 151.40 378.40 143.30 400.90 160.50 424.60 L 171.70 433.10 C 171.70 433.10 178.50 399.60 151.40 378.40 L 151.40 378.40 Z" fill="#000000" fill-rule="nonzero" node-id="484" stroke="none" target-height="54.700012" target-width="35.199997" target-x="143.3" target-y="378.4"></path></clipPath><clipPath id="SVGID_72_" node-id="287"><path d="M 187.10 457.90 L 156.80 457.80 L 159.20 493.60 C 159.20 493.60 159.40 502.40 163.10 503.10 L 181.10 503.30 C 181.10 503.30 184.50 504.00 184.90 492.60 L 187.10 457.90 L 187.10 457.90 Z" fill="#000000" fill-rule="nonzero" node-id="488" stroke="none" target-height="46.200012" target-width="30.300003" target-x="156.8" target-y="457.8"></path></clipPath><clipPath id="SVGID_74_" node-id="294"><path d="M 145.10 410.00 C 145.10 410.00 142.30 442.40 172.50 445.30 C 172.50 445.30 195.40 435.50 195.10 409.30 C 195.30 409.20 173.90 412.00 170.20 428.50 C 170.30 428.60 166.60 417.30 145.10 410.00 L 145.10 410.00 Z" fill="#000000" fill-rule="nonzero" node-id="492" stroke="none" target-height="36.099976" target-width="53.09999" target-x="142.3" target-y="409.2"></path></clipPath><clipPath id="SVGID_76_" node-id="302"><path d="M 146.20 423.10 C 146.20 423.10 147.40 447.60 172.00 455.40 C 172.00 455.50 182.30 431.70 146.20 423.10 L 146.20 423.10 Z" fill="#000000" fill-rule="nonzero" node-id="496" stroke="none" target-height="32.399994" target-width="36.100006" target-x="146.2" target-y="423.1"></path></clipPath><clipPath id="SVGID_78_" node-id="309"><path d="M 189.60 425.90 C 189.60 425.90 162.70 435.20 172.00 453.50 C 172.00 453.50 190.60 455.00 189.60 425.90 L 189.60 425.90 Z" fill="#000000" fill-rule="nonzero" node-id="500" stroke="none" target-height="29.100006" target-width="27.90001" target-x="162.7" target-y="425.9"></path></clipPath><clipPath id="SVGID_80_" node-id="316"><path d="M 160.70 445.40 C 160.70 445.40 158.70 456.70 170.00 457.90 C 169.90 457.80 179.40 448.40 160.70 445.40 L 160.70 445.40 Z" fill="#000000" fill-rule="nonzero" node-id="504" stroke="none" target-height="12.5" target-width="20.699997" target-x="158.7" target-y="445.4"></path></clipPath><clipPath id="SVGID_82_" node-id="323"><path d="M 183.00 445.10 C 183.00 445.10 172.40 444.20 169.60 457.60 C 169.60 457.50 181.70 461.90 183.00 445.10 L 183.00 445.10 Z" fill="#000000" fill-rule="nonzero" node-id="508" stroke="none" target-height="17.699982" target-width="13.399994" target-x="169.6" target-y="444.2"></path></clipPath></defs><path d="M 447.20 63.30 C 447.20 63.30 415.70 100.20 430.70 200.00 L 449.40 231.50 C 449.40 231.60 491.20 144.20 447.20 63.30 L 447.20 63.30 Z" fill="#faa5b4" fill-rule="evenodd" node-id="516" stroke="none" target-height="168.3" target-width="75.5" target-x="415.7" target-y="63.3"></path><g node-id="1227"><g clip-path="url(#SVGID_2_)" group-id="1" node-id="520"><path d="M 446.30 252.00 C 446.30 252.00 441.30 126.70 447.00 80.70 C 447.00 80.70 446.00 215.50 446.30 252.00 L 446.30 252.00 Z" fill="#ffffff" fill-rule="evenodd" group-id="1,34" node-id="522" stroke="none" target-height="171.3" target-width="5.700012" target-x="441.3" target-y="80.7"></path></g></g><path d="M 494.40 139.20 C 494.40 139.20 438.70 152.20 447.20 231.50 C 447.20 231.60 493.70 235.30 494.40 139.20 L 494.40 139.20 Z" fill="#ff8ea2" fill-rule="evenodd" node-id="526" stroke="none" target-height="96.100006" target-width="55.69998" target-x="438.7" target-y="139.2"></path><g clip-path="url(#SVGID_4_)" group-id="2" node-id="530"><path d="M 494.40 140.40 C 494.40 140.40 459.30 197.30 449.50 237.30 C 449.40 237.30 462.50 195.90 494.40 140.40 L 494.40 140.40 Z" fill="#ffffff" fill-rule="evenodd" group-id="2,35" node-id="532" stroke="none" target-height="96.90001" target-width="45" target-x="449.4" target-y="140.4"></path></g><path d="M 403.70 135.90 C 403.70 135.90 387.00 182.60 422.50 231.50 L 445.70 249.10 C 445.60 249.10 459.70 179.90 403.70 135.90 L 403.70 135.90 Z" fill="#ff3f67" fill-rule="evenodd" node-id="536" stroke="none" target-height="113.20001" target-width="72.70001" target-x="387" target-y="135.9"></path><g clip-path="url(#SVGID_6_)" group-id="3" node-id="540"><path d="M 406.60 139.20 C 406.60 139.20 412.80 228.80 470.90 268.00 C 470.90 268.10 421.50 238.70 406.60 139.20 L 406.60 139.20 Z" fill="#ffffff" fill-rule="evenodd" group-id="3,36" node-id="542" stroke="none" target-height="128.90001" target-width="64.29999" target-x="406.6" target-y="139.2"></path></g><path d="M 390.70 201.50 C 390.70 201.50 384.90 268.50 447.50 274.60 C 447.50 274.60 494.80 254.30 494.30 200.10 C 494.70 199.80 450.40 205.60 442.70 239.90 C 442.70 239.90 435.20 216.40 390.70 201.50 L 390.70 201.50 Z" fill="#faa5b4" fill-rule="evenodd" node-id="546" stroke="none" target-height="74.8" target-width="109.899994" target-x="384.9" target-y="199.8"></path><g clip-path="url(#SVGID_8_)" group-id="4,37" node-id="550"><path d="M 488.30 208.80 C 488.30 208.80 454.90 240.10 445.60 263.10 C 445.60 263.00 451.10 248.40 488.30 208.80 L 488.30 208.80 Z" fill="#ffffff" fill-rule="evenodd" group-id="4,37" node-id="552" stroke="none" target-height="54.300003" target-width="42.69998" target-x="445.6" target-y="208.8"></path></g><g clip-path="url(#SVGID_8_)" group-id="4,38" node-id="555"><path d="M 390.60 200.10 C 390.60 200.10 415.40 259.80 445.70 263.10 C 445.60 263.00 424.00 265.70 390.60 200.10 L 390.60 200.10 Z" fill="#ffffff" fill-rule="evenodd" group-id="4,38" node-id="557" stroke="none" target-height="65.600006" target-width="55.100006" target-x="390.6" target-y="200.1"></path></g><path d="M 392.90 228.60 C 392.90 228.60 395.30 279.40 446.30 295.50 C 446.30 295.50 467.60 246.30 392.90 228.60 L 392.90 228.60 Z" fill="#ff8ea2" fill-rule="evenodd" node-id="561" stroke="none" target-height="66.899994" target-width="74.70001" target-x="392.9" target-y="228.6"></path><g clip-path="url(#SVGID_10_)" group-id="5" node-id="565"><path d="M 399.60 235.20 C 399.60 235.20 430.30 282.40 458.30 284.10 C 458.30 284.10 436.10 284.10 399.60 235.20 L 399.60 235.20 Z" fill="#ffffff" fill-rule="evenodd" group-id="5,39" node-id="567" stroke="none" target-height="48.90001" target-width="58.69998" target-x="399.6" target-y="235.2"></path></g><path d="M 482.80 234.30 C 482.80 234.30 427.10 253.50 446.30 291.40 C 446.30 291.40 484.90 294.50 482.80 234.30 L 482.80 234.30 Z" fill="#ff3f67" fill-rule="evenodd" node-id="571" stroke="none" target-height="60.199997" target-width="57.799988" target-x="427.1" target-y="234.3"></path><g clip-path="url(#SVGID_12_)" group-id="6" node-id="575"><path d="M 482.30 235.20 C 482.30 235.20 464.30 276.50 439.00 294.60 C 439.00 294.60 460.30 278.30 482.30 235.20 L 482.30 235.20 Z" fill="#ffffff" fill-rule="evenodd" group-id="6,40" node-id="577" stroke="none" target-height="59.40001" target-width="43.299988" target-x="439" target-y="235.2"></path></g><path d="M 422.80 274.60 C 422.80 274.60 418.60 298.10 442.00 300.50 C 442.00 300.40 461.70 280.90 422.80 274.60 L 422.80 274.60 Z" fill="#ff3f67" fill-rule="evenodd" node-id="581" stroke="none" target-height="25.899994" target-width="43.100006" target-x="418.6" target-y="274.6"></path><g clip-path="url(#SVGID_14_)" group-id="7" node-id="585"><path d="M 449.10 300.80 C 449.10 300.80 425.00 294.30 421.00 267.40 C 421.00 267.40 422.20 287.40 449.10 300.80 L 449.10 300.80 Z" fill="#ffffff" fill-rule="evenodd" group-id="7,41" node-id="587" stroke="none" target-height="33.399994" target-width="28.100006" target-x="421" target-y="267.4"></path></g><path d="M 469.00 273.90 C 469.00 273.90 447.10 272.00 441.20 299.80 C 441.30 299.80 466.40 308.70 469.00 273.90 L 469.00 273.90 Z" fill="#ff8ea2" fill-rule="evenodd" node-id="591" stroke="none" target-height="36.700012" target-width="27.799988" target-x="441.2" target-y="272"></path><g clip-path="url(#SVGID_16_)" group-id="8" node-id="595"><path d="M 437.10 300.80 C 437.10 300.80 458.20 300.60 467.10 274.50 C 467.20 274.60 458.90 296.40 437.10 300.80 L 437.10 300.80 Z" fill="#ffffff" fill-rule="evenodd" group-id="8,42" node-id="597" stroke="none" target-height="26.299988" target-width="30.100006" target-x="437.1" target-y="274.5"></path></g><path d="M 212.00 127.20 C 212.00 127.20 169.40 72.30 128.20 127.80 C 128.20 127.80 94.90 183.90 89.30 203.60 C 89.30 203.60 87.50 238.70 64.30 244.30 C 64.30 244.30 10.90 300.30 92.20 391.30 C 92.20 391.30 119.60 417.10 160.00 406.70 C 160.00 406.70 243.10 383.00 224.40 436.60 C 224.40 436.60 182.80 503.20 316.30 516.60 C 316.30 516.60 519.80 519.90 536.40 435.90 C 536.40 435.90 537.50 390.40 439.70 373.10 C 439.70 373.10 377.90 345.60 490.30 358.30 C 490.30 358.30 575.80 373.50 520.60 316.60 C 520.60 316.60 502.10 297.80 551.50 252.90 C 551.50 252.90 588.40 184.00 526.90 162.10 C 526.90 162.10 508.80 156.00 456.50 196.80 C 456.50 196.80 373.40 244.80 402.20 134.40 C 402.20 134.40 415.50 55.70 325.90 80.90 C 325.90 80.90 294.80 95.90 249.20 128.30 C 249.20 128.50 240.60 161.60 212.00 127.20 L 212.00 127.20 Z" fill="#e2e3fe" fill-rule="evenodd" node-id="601" stroke="none" target-height="464.2" target-width="577.5" target-x="10.9" target-y="55.7"></path><g clip-path="url(#SVGID_18_)" group-id="9,43" node-id="605"><path d="M 117.10 184.80 C 117.10 183.10 115.70 181.70 114.00 181.70 C 112.30 181.70 110.90 183.10 110.90 184.80 L 110.90 338.80 C 110.90 340.50 112.30 341.90 114.00 341.90 C 115.70 341.90 117.10 340.50 117.10 338.80 L 117.10 184.80 L 117.10 184.80 Z" fill="#b1b2ff" fill-rule="evenodd" group-id="9,43" node-id="607" stroke="none" target-height="160.2" target-width="6.199997" target-x="110.9" target-y="181.7"></path></g><g clip-path="url(#SVGID_18_)" group-id="9,44" node-id="610"><path d="M 135.00 283.80 C 135.00 282.10 133.60 280.70 131.90 280.70 C 130.20 280.70 128.80 282.10 128.80 283.80 L 128.80 338.70 C 128.80 340.40 130.20 341.80 131.90 341.80 C 133.60 341.80 135.00 340.40 135.00 338.70 L 135.00 283.80 L 135.00 283.80 Z" fill="#dddefd" fill-rule="evenodd" group-id="9,44" node-id="612" stroke="none" target-height="61.099976" target-width="6.199997" target-x="128.8" target-y="280.7"></path></g><g clip-path="url(#SVGID_18_)" group-id="9,45" node-id="615"><path d="M 152.10 266.40 C 152.10 264.70 150.70 263.30 149.00 263.30 C 147.30 263.30 145.90 264.70 145.90 266.40 L 145.90 338.80 C 145.90 340.50 147.30 341.90 149.00 341.90 C 150.70 341.90 152.10 340.50 152.10 338.80 L 152.10 266.40 L 152.10 266.40 Z" fill="#b1b2ff" fill-rule="evenodd" group-id="9,45" node-id="617" stroke="none" target-height="78.600006" target-width="6.200012" target-x="145.9" target-y="263.3"></path></g><g clip-path="url(#SVGID_18_)" group-id="9,46" node-id="620"><path d="M 172.20 240.10 C 172.20 238.40 170.80 237.00 169.10 237.00 C 167.40 237.00 166.00 238.40 166.00 240.10 L 166.00 338.70 C 166.00 340.40 167.40 341.80 169.10 341.80 C 170.80 341.80 172.20 340.40 172.20 338.70 L 172.20 240.10 L 172.20 240.10 Z" fill="#b1b2ff" fill-rule="evenodd" group-id="9,46" node-id="622" stroke="none" target-height="104.79999" target-width="6.199997" target-x="166" target-y="237"></path></g><g clip-path="url(#SVGID_18_)" group-id="9,47" node-id="625"><path d="M 190.00 248.90 C 190.00 247.20 188.60 245.80 186.90 245.80 C 185.20 245.80 183.80 247.20 183.80 248.90 L 183.80 338.80 C 183.80 340.50 185.20 341.90 186.90 341.90 C 188.60 341.90 190.00 340.50 190.00 338.80 L 190.00 248.90 L 190.00 248.90 Z" fill="#dddefd" fill-rule="evenodd" group-id="9,47" node-id="627" stroke="none" target-height="96.09999" target-width="6.199997" target-x="183.8" target-y="245.8"></path></g><g clip-path="url(#SVGID_18_)" group-id="9,48" node-id="630"><path d="M 209.20 231.40 C 209.20 229.70 207.80 228.30 206.10 228.30 C 204.40 228.30 203.00 229.70 203.00 231.40 L 203.00 338.80 C 203.00 340.50 204.40 341.90 206.10 341.90 C 207.80 341.90 209.20 340.50 209.20 338.80 L 209.20 231.40 L 209.20 231.40 Z" fill="#eaebfb" fill-rule="evenodd" group-id="9,48" node-id="632" stroke="none" target-height="113.59999" target-width="6.199997" target-x="203" target-y="228.3"></path></g><g clip-path="url(#SVGID_18_)" group-id="9,49" node-id="635"><path d="M 225.90 310.00 C 225.90 308.30 224.50 306.90 222.80 306.90 C 221.10 306.90 219.70 308.30 219.70 310.00 L 219.70 338.70 C 219.70 340.40 221.10 341.80 222.80 341.80 C 224.50 341.80 225.90 340.40 225.90 338.70 L 225.90 310.00 L 225.90 310.00 Z" fill="#b1b2ff" fill-rule="evenodd" group-id="9,49" node-id="637" stroke="none" target-height="34.899994" target-width="6.199997" target-x="219.7" target-y="306.9"></path></g><g clip-path="url(#SVGID_18_)" group-id="9,50" node-id="640"><path d="M 308.80 310.00 C 308.80 308.30 307.40 306.90 305.70 306.90 C 304.00 306.90 302.60 308.30 302.60 310.00 L 302.60 338.70 C 302.60 340.40 304.00 341.80 305.70 341.80 C 307.40 341.80 308.80 340.40 308.80 338.70 L 308.80 310.00 L 308.80 310.00 Z" fill="#b1b2ff" fill-rule="evenodd" group-id="9,50" node-id="642" stroke="none" target-height="34.899994" target-width="6.1999817" target-x="302.6" target-y="306.9"></path></g><g clip-path="url(#SVGID_18_)" group-id="9,51" node-id="645"><path d="M 244.10 292.60 C 244.10 290.90 242.70 289.50 241.00 289.50 C 239.30 289.50 237.90 290.90 237.90 292.60 L 237.90 338.80 C 237.90 340.50 239.30 341.90 241.00 341.90 C 242.70 341.90 244.10 340.50 244.10 338.80 L 244.10 292.60 L 244.10 292.60 Z" fill="#eaebfb" fill-rule="evenodd" group-id="9,51" node-id="647" stroke="none" target-height="52.399994" target-width="6.200012" target-x="237.9" target-y="289.5"></path></g><g clip-path="url(#SVGID_18_)" group-id="9,52" node-id="650"><path d="M 327.10 292.60 C 327.10 290.90 325.70 289.50 324.00 289.50 C 322.30 289.50 320.90 290.90 320.90 292.60 L 320.90 338.80 C 320.90 340.50 322.30 341.90 324.00 341.90 C 325.70 341.90 327.10 340.50 327.10 338.80 L 327.10 292.60 L 327.10 292.60 Z" fill="#dddefd" fill-rule="evenodd" group-id="9,52" node-id="652" stroke="none" target-height="52.399994" target-width="6.200012" target-x="320.9" target-y="289.5"></path></g><g clip-path="url(#SVGID_18_)" group-id="9,53" node-id="655"><path d="M 258.60 283.80 C 258.60 282.10 257.20 280.70 255.50 280.70 C 253.80 280.70 252.40 282.10 252.40 283.80 L 252.40 338.70 C 252.40 340.40 253.80 341.80 255.50 341.80 C 257.20 341.80 258.60 340.40 258.60 338.70 L 258.60 283.80 L 258.60 283.80 Z" fill="#b1b2ff" fill-rule="evenodd" group-id="9,53" node-id="657" stroke="none" target-height="61.099976" target-width="6.200012" target-x="252.4" target-y="280.7"></path></g><g clip-path="url(#SVGID_18_)" group-id="9,54" node-id="660"><path d="M 341.50 283.80 C 341.50 282.10 340.10 280.70 338.40 280.70 C 336.70 280.70 335.30 282.10 335.30 283.80 L 335.30 338.70 C 335.30 340.40 336.70 341.80 338.40 341.80 C 340.10 341.80 341.50 340.40 341.50 338.70 L 341.50 283.80 L 341.50 283.80 Z" fill="#b1b2ff" fill-rule="evenodd" group-id="9,54" node-id="662" stroke="none" target-height="61.099976" target-width="6.200012" target-x="335.3" target-y="280.7"></path></g><g clip-path="url(#SVGID_18_)" group-id="9,55" node-id="665"><path d="M 276.60 327.50 C 276.60 325.80 275.20 324.40 273.50 324.40 C 271.80 324.40 270.40 325.80 270.40 327.50 L 270.40 338.80 C 270.40 340.50 271.80 341.90 273.50 341.90 C 275.20 341.90 276.60 340.50 276.60 338.80 L 276.60 327.50 L 276.60 327.50 Z" fill="#eaebfb" fill-rule="evenodd" group-id="9,55" node-id="667" stroke="none" target-height="17.5" target-width="6.200012" target-x="270.4" target-y="324.4"></path></g><g clip-path="url(#SVGID_18_)" group-id="9,56" node-id="670"><path d="M 359.60 327.50 C 359.60 325.80 358.20 324.40 356.50 324.40 C 354.80 324.40 353.40 325.80 353.40 327.50 L 353.40 338.80 C 353.40 340.50 354.80 341.90 356.50 341.90 C 358.20 341.90 359.60 340.50 359.60 338.80 L 359.60 327.50 L 359.60 327.50 Z" fill="#b1b2ff" fill-rule="evenodd" group-id="9,56" node-id="672" stroke="none" target-height="17.5" target-width="6.200012" target-x="353.4" target-y="324.4"></path></g><g clip-path="url(#SVGID_18_)" group-id="9,57" node-id="675"><path d="M 291.70 231.40 C 291.70 229.70 290.30 228.30 288.60 228.30 C 286.90 228.30 285.50 229.70 285.50 231.40 L 285.50 338.80 C 285.50 340.50 286.90 341.90 288.60 341.90 C 290.30 341.90 291.70 340.50 291.70 338.80 L 291.70 231.40 L 291.70 231.40 Z" fill="#dddefd" fill-rule="evenodd" group-id="9,57" node-id="677" stroke="none" target-height="113.59999" target-width="6.200012" target-x="285.5" target-y="228.3"></path></g><g clip-path="url(#SVGID_18_)" group-id="9,58" node-id="680"><path d="M 374.70 231.40 C 374.70 229.70 373.30 228.30 371.60 228.30 C 369.90 228.30 368.50 229.70 368.50 231.40 L 368.50 338.80 C 368.50 340.50 369.90 341.90 371.60 341.90 C 373.30 341.90 374.70 340.50 374.70 338.80 L 374.70 231.40 L 374.70 231.40 Z" fill="#dddefd" fill-rule="evenodd" group-id="9,58" node-id="682" stroke="none" target-height="113.59999" target-width="6.200012" target-x="368.5" target-y="228.3"></path></g><g clip-path="url(#SVGID_18_)" group-id="9,59" node-id="685"><path d="M 209.60 214.60 L 118.50 164.90 L 117.70 166.30 L 208.80 216.10 L 209.60 214.60 Z" fill="#8682f8" fill-rule="evenodd" group-id="9,59" node-id="687" stroke="none" target-height="51.200012" target-width="91.90001" target-x="117.7" target-y="164.9"></path></g><g clip-path="url(#SVGID_18_)" group-id="9,60" node-id="690"><path d="M 281.50 168.60 L 209.60 214.70 L 210.50 216.10 L 282.40 170.00 L 281.50 168.60 Z" fill="#8682f8" fill-rule="evenodd" group-id="9,60" node-id="692" stroke="none" target-height="47.5" target-width="72.79999" target-x="209.6" target-y="168.6"></path></g><g clip-path="url(#SVGID_18_)" group-id="9,61" node-id="695"><path d="M 363.40 194.70 L 281.90 169.20 L 281.40 170.80 L 362.90 196.30 L 363.40 194.70 Z" fill="#8682f8" fill-rule="evenodd" group-id="9,61" node-id="697" stroke="none" target-height="27.100006" target-width="82" target-x="281.4" target-y="169.2"></path></g><g clip-path="url(#SVGID_18_)" group-id="9,62" node-id="700"><path d="M 209.60 210.90 C 211.30 210.90 212.80 212.30 212.80 214.10 C 212.80 215.80 211.40 217.30 209.60 217.30 C 207.90 217.30 206.40 215.90 206.40 214.10 C 206.40 212.30 207.80 210.90 209.60 210.90 L 209.60 210.90 Z" fill="#8682f8" fill-rule="evenodd" group-id="9,62" node-id="702" stroke="none" target-height="6.400009" target-width="6.400009" target-x="206.4" target-y="210.9"></path></g><g clip-path="url(#SVGID_18_)" group-id="9,63" node-id="705"><path d="M 280.90 166.60 C 282.60 166.60 284.10 168.00 284.10 169.80 C 284.10 171.50 282.70 173.00 280.90 173.00 C 279.20 173.00 277.70 171.60 277.70 169.80 C 277.70 168.00 279.10 166.60 280.90 166.60 L 280.90 166.60 Z" fill="#8682f8" fill-rule="evenodd" group-id="9,63" node-id="707" stroke="none" target-height="6.399994" target-width="6.399994" target-x="277.7" target-y="166.6"></path></g><g clip-path="url(#SVGID_18_)" group-id="9,64" node-id="710"><path d="M 363.90 192.30 C 365.60 192.30 367.10 193.70 367.10 195.50 C 367.10 197.20 365.70 198.70 363.90 198.70 C 362.20 198.70 360.70 197.30 360.70 195.50 C 360.70 193.70 362.20 192.30 363.90 192.30 L 363.90 192.30 Z" fill="#8682f8" fill-rule="evenodd" group-id="9,64" node-id="712" stroke="none" target-height="6.399994" target-width="6.399994" target-x="360.7" target-y="192.3"></path></g><g clip-path="url(#SVGID_18_)" group-id="9,65" node-id="715"><path d="M 118.40 161.60 C 120.10 161.60 121.60 163.00 121.60 164.80 C 121.60 166.50 120.20 168.00 118.40 168.00 C 116.70 168.00 115.20 166.60 115.20 164.80 C 115.20 163.00 116.70 161.60 118.40 161.60 L 118.40 161.60 Z" fill="#8682f8" fill-rule="evenodd" group-id="9,65" node-id="717" stroke="none" target-height="6.399994" target-width="6.4000015" target-x="115.2" target-y="161.6"></path></g><g clip-path="url(#SVGID_18_)" group-id="9,66" node-id="720"><path d="M 330.80 464.70 C 330.80 464.70 327.20 472.60 327.40 476.00 C 327.40 476.00 327.00 482.80 338.70 479.40 C 338.70 479.40 366.60 479.50 368.90 474.70 C 368.90 474.70 373.10 466.90 353.30 466.80 L 330.80 464.70 L 330.80 464.70 Z" fill="#ff7700" fill-rule="evenodd" group-id="9,66" node-id="722" stroke="none" target-height="18.099976" target-width="46.100006" target-x="327" target-y="464.7"></path></g><g clip-path="url(#SVGID_18_)" group-id="9,67" node-id="725"><path d="M 254.90 377.00 C 254.90 377.00 244.90 393.50 253.30 410.30 C 253.30 410.30 253.80 418.70 266.30 418.20 C 266.30 418.20 311.00 420.10 318.00 422.10 L 334.10 471.40 C 334.10 471.40 344.10 483.80 349.80 484.00 C 349.80 484.00 347.10 430.30 349.70 411.30 L 354.10 396.00 C 354.10 396.00 357.30 385.90 345.90 381.90 C 345.90 381.90 328.20 378.80 311.60 375.20 C 304.90 373.70 296.90 374.90 297.60 371.30 L 273.10 376.30 L 254.90 377.00 L 254.90 377.00 Z" fill="#4561ff" fill-rule="evenodd" group-id="9,67" node-id="727" stroke="none" target-height="112.70001" target-width="112.399994" target-x="244.9" target-y="371.3"></path></g><g clip-path="url(#SVGID_22_)" group-id="10,68" node-id="733"><path d="M 300.80 352.90 C 300.80 352.90 288.10 376.20 307.60 386.90 C 307.60 386.90 335.40 397.00 342.40 400.10 C 349.40 403.20 350.20 413.40 351.00 417.10 L 361.10 394.50 L 357.50 369.80 L 341.10 363.40 L 318.10 361.50 L 300.80 352.90 L 300.80 352.90 Z" fill="#4759dd" fill-rule="evenodd" group-id="10,68" node-id="735" stroke="none" target-height="64.20001" target-width="73" target-x="288.1" target-y="352.9"></path></g><g clip-path="url(#SVGID_22_)" group-id="10,69" node-id="738"><path d="M 318.20 354.20 C 318.20 354.20 270.30 368.10 262.10 378.40 C 262.10 378.40 255.10 400.90 289.10 407.40 L 319.50 419.00 C 319.50 419.00 319.20 456.50 321.80 461.50 C 321.80 461.50 329.70 474.90 341.40 472.80 L 330.40 482.60 C 330.40 482.60 272.00 474.90 262.90 463.40 C 253.80 451.90 211.00 398.10 213.30 387.90 C 215.60 377.70 245.70 332.00 253.90 331.90 C 262.00 332.00 318.20 354.20 318.20 354.20 L 318.20 354.20 Z" fill="#4759dd" fill-rule="evenodd" group-id="10,69" node-id="740" stroke="none" target-height="150.70001" target-width="130.4" target-x="211" target-y="331.9"></path></g><g clip-path="url(#SVGID_24_)" group-id="11,70" node-id="746"><path d="M 206.20 511.70 C 210.10 511.70 213.30 514.90 213.30 518.80 C 213.30 522.70 210.10 525.90 206.20 525.90 C 202.30 525.90 199.10 522.70 199.10 518.80 C 199.10 514.90 202.30 511.70 206.20 511.70 L 206.20 511.70 Z" fill="#8682f8" fill-rule="evenodd" group-id="11,70" node-id="748" stroke="none" target-height="14.200012" target-width="14.199997" target-x="199.1" target-y="511.7"></path></g><g clip-path="url(#SVGID_24_)" group-id="11,71" node-id="751"><path d="M 266.10 511.70 C 270.00 511.70 273.20 514.90 273.20 518.80 C 273.20 522.70 270.00 525.90 266.10 525.90 C 262.20 525.90 259.00 522.70 259.00 518.80 C 258.90 514.90 262.10 511.70 266.10 511.70 L 266.10 511.70 Z" fill="#8682f8" fill-rule="evenodd" group-id="11,71" node-id="753" stroke="none" target-height="14.200012" target-width="14.300018" target-x="258.9" target-y="511.7"></path></g><g clip-path="url(#SVGID_24_)" group-id="11,72" node-id="756"><path d="M 329.10 511.70 C 333.00 511.70 336.20 514.90 336.20 518.80 C 336.20 522.70 333.00 525.90 329.10 525.90 C 325.20 525.90 322.00 522.70 322.00 518.80 C 321.90 514.90 325.10 511.70 329.10 511.70 L 329.10 511.70 Z" fill="#8682f8" fill-rule="evenodd" group-id="11,72" node-id="758" stroke="none" target-height="14.200012" target-width="14.300018" target-x="321.9" target-y="511.7"></path></g><g clip-path="url(#SVGID_24_)" group-id="11,73" node-id="761"><path d="M 263.00 437.40 L 261.70 500.50 C 261.70 500.50 221.40 502.20 204.70 505.90 C 204.70 505.90 199.70 509.30 207.30 510.40 L 328.40 511.20 C 328.40 511.20 332.90 506.30 322.80 504.70 C 322.80 504.70 312.50 502.20 274.50 500.00 L 275.60 434.30 L 263.00 437.40 L 263.00 437.40 Z" fill="#b1b2ff" fill-rule="evenodd" group-id="11,73" node-id="763" stroke="none" target-height="76.900024" target-width="133.2" target-x="199.7" target-y="434.3"></path></g><g clip-path="url(#SVGID_28_)" group-id="12" node-id="769"><path d="M 266.80 427.70 L 264.90 503.50 C 264.90 503.50 215.10 503.40 200.00 511.50 L 179.10 499.10 L 233.60 446.50 L 266.80 427.70 L 266.80 427.70 Z" fill="#8682f8" fill-rule="evenodd" group-id="12,74" node-id="771" stroke="none" target-height="83.79999" target-width="87.69998" target-x="179.1" target-y="427.7"></path></g><g clip-path="url(#SVGID_30_)" group-id="13,75" node-id="777"><path d="M 218.60 317.80 L 219.10 399.00 C 219.10 399.00 218.30 434.00 238.50 434.90 L 316.70 435.80 C 316.70 435.80 324.70 430.00 316.60 419.30 L 243.60 418.30 C 243.60 418.30 233.10 419.20 232.60 396.60 L 231.50 312.70 C 231.50 312.60 220.40 300.60 218.60 317.80 L 218.60 317.80 Z" fill="#8682f8" fill-rule="evenodd" group-id="13,75" node-id="779" stroke="none" target-height="135.19998" target-width="106.40001" target-x="218.3" target-y="300.6"></path></g><g clip-path="url(#SVGID_30_)" group-id="13,76" node-id="782"><path d="M 215.70 315.30 L 216.20 402.80 C 216.20 402.80 215.40 437.80 235.60 438.70 L 317.30 439.60 C 317.30 439.60 326.40 433.80 318.40 423.10 L 240.80 422.10 C 240.80 422.10 230.50 422.00 229.80 400.40 L 228.70 310.20 C 228.60 310.20 217.50 298.20 215.70 315.30 L 215.70 315.30 Z" fill="#b1b2ff" fill-rule="evenodd" group-id="13,76" node-id="784" stroke="none" target-height="141.4" target-width="111" target-x="215.4" target-y="298.2"></path></g><g clip-path="url(#SVGID_30_)" group-id="13,77" node-id="787"><path d="M 461.90 425.50 L 446.10 425.50 L 446.10 454.60 L 461.90 454.60 L 461.90 425.50 Z" fill="#1f5ee3" fill-rule="evenodd" group-id="13,77" node-id="789" stroke="none" target-height="29.100006" target-width="15.799988" target-x="446.1" target-y="425.5"></path></g><g clip-path="url(#SVGID_30_)" group-id="13,78" node-id="792"><path d="M 477.70 425.50 L 461.90 425.50 L 461.90 454.60 L 477.70 454.60 L 477.70 425.50 Z" fill="#1fa6e3" fill-rule="evenodd" group-id="13,78" node-id="794" stroke="none" target-height="29.100006" target-width="15.800018" target-x="461.9" target-y="425.5"></path></g><g clip-path="url(#SVGID_30_)" group-id="13,79" node-id="797"><path d="M 493.40 425.50 L 477.50 425.50 L 477.50 454.60 L 493.40 454.60 L 493.40 425.50 Z" fill="#9de31f" fill-rule="evenodd" group-id="13,79" node-id="799" stroke="none" target-height="29.100006" target-width="15.899994" target-x="477.5" target-y="425.5"></path></g><g clip-path="url(#SVGID_30_)" group-id="13,80" node-id="802"><path d="M 508.60 425.50 L 534.50 429.50 L 534.30 448.40 L 509.00 450.50 L 508.60 425.50 Z" fill="#e3c61f" fill-rule="evenodd" group-id="13,80" node-id="804" stroke="none" target-height="25" target-width="25.899994" target-x="508.6" target-y="425.5"></path></g><g clip-path="url(#SVGID_30_)" group-id="13,81" node-id="807"><path d="M 509.10 425.40 L 493.30 425.40 L 493.30 454.50 L 509.10 454.50 L 509.10 425.40 Z" fill="#e3d81f" fill-rule="evenodd" group-id="13,81" node-id="809" stroke="none" target-height="29.100006" target-width="15.800018" target-x="493.3" target-y="425.4"></path></g><g clip-path="url(#SVGID_30_)" group-id="13,82" node-id="812"><path d="M 458.10 433.80 C 458.10 431.30 456.10 429.20 453.50 429.20 C 451.00 429.20 448.90 431.20 448.90 433.80 L 448.80 458.50 C 448.80 461.00 450.80 463.10 453.40 463.10 C 455.90 463.10 458.00 461.10 458.00 458.50 L 458.10 433.80 L 458.10 433.80 Z" fill="#eeebd7" fill-rule="evenodd" group-id="13,82" node-id="814" stroke="none" target-height="33.899994" target-width="9.300018" target-x="448.8" target-y="429.2"></path></g><g clip-path="url(#SVGID_30_)" group-id="13,83" node-id="817"><path d="M 474.10 433.90 C 474.10 431.40 472.10 429.30 469.50 429.30 C 467.00 429.30 464.90 431.30 464.90 433.90 L 464.80 458.60 C 464.80 461.10 466.80 463.20 469.40 463.20 C 471.90 463.20 474.00 461.20 474.00 458.60 L 474.10 433.90 L 474.10 433.90 Z" fill="#eeebd7" fill-rule="evenodd" group-id="13,83" node-id="819" stroke="none" target-height="33.900024" target-width="9.300018" target-x="464.8" target-y="429.3"></path></g><g clip-path="url(#SVGID_30_)" group-id="13,84" node-id="822"><path d="M 489.90 433.90 C 489.90 431.40 487.90 429.30 485.30 429.30 C 482.80 429.30 480.70 431.30 480.70 433.90 L 480.60 458.60 C 480.60 461.10 482.60 463.20 485.20 463.20 C 487.70 463.20 489.80 461.20 489.80 458.60 L 489.90 433.90 L 489.90 433.90 Z" fill="#eeebd7" fill-rule="evenodd" group-id="13,84" node-id="824" stroke="none" target-height="33.900024" target-width="9.299988" target-x="480.6" target-y="429.3"></path></g><g clip-path="url(#SVGID_30_)" group-id="13,85" node-id="827"><path d="M 505.40 434.00 C 505.40 431.50 503.40 429.40 500.80 429.40 C 498.30 429.40 496.20 431.40 496.20 434.00 L 496.10 458.70 C 496.10 461.20 498.10 463.30 500.70 463.30 C 503.20 463.30 505.30 461.30 505.30 458.70 L 505.40 434.00 L 505.40 434.00 Z" fill="#eeebd7" fill-rule="evenodd" group-id="13,85" node-id="829" stroke="none" target-height="33.899994" target-width="9.299988" target-x="496.1" target-y="429.4"></path></g><g clip-path="url(#SVGID_30_)" group-id="13,86" node-id="832"><path d="M 515.70 448.40 L 540.50 448.40 L 540.50 511.40 L 515.70 517.50 L 515.70 448.40 Z" fill="#f3bb3b" fill-rule="evenodd" group-id="13,86" node-id="834" stroke="none" target-height="69.100006" target-width="24.799988" target-x="515.7" target-y="448.4"></path></g><g clip-path="url(#SVGID_30_)" group-id="13,87" node-id="837"><path d="M 436.50 447.90 L 436.40 517.00 L 515.70 517.50 L 516.20 448.30 L 436.50 447.90 Z" fill="#fed64e" fill-rule="evenodd" group-id="13,87" node-id="839" stroke="none" target-height="69.600006" target-width="79.80002" target-x="436.4" target-y="447.9"></path></g><g clip-path="url(#SVGID_30_)" group-id="13,88" node-id="842"><path d="M 493.70 456.80 C 493.70 456.00 493.00 455.30 492.20 455.30 L 459.80 455.30 C 459.00 455.30 458.30 456.00 458.30 456.80 C 458.30 457.60 459.00 458.30 459.80 458.30 L 492.20 458.30 C 493.10 458.30 493.70 457.60 493.70 456.80 L 493.70 456.80 Z" fill="#f3bb3b" fill-rule="evenodd" group-id="13,88" node-id="844" stroke="none" target-height="3" target-width="35.400024" target-x="458.3" target-y="455.3"></path></g><g clip-path="url(#SVGID_30_)" group-id="13,89" node-id="847"><path d="M 340.50 402.40 L 459.90 399.80 L 455.60 391.20 L 401.80 308.40 L 341.90 309.80 L 340.60 387.40 L 340.50 402.40 Z" fill="#8682f8" fill-rule="evenodd" group-id="13,89" node-id="849" stroke="none" target-height="94" target-width="119.399994" target-x="340.5" target-y="308.4"></path></g><g clip-path="url(#SVGID_30_)" group-id="13,90" node-id="852"><path d="M 366.80 400.90 L 362.60 400.90 L 362.60 527.30 L 366.80 527.30 L 366.80 400.90 Z" fill="#8682f8" fill-rule="evenodd" group-id="13,90" node-id="854" stroke="none" target-height="126.399994" target-width="4.1999817" target-x="362.6" target-y="400.9"></path></g><g clip-path="url(#SVGID_30_)" group-id="13,91" node-id="857"><path d="M 431.60 398.80 L 427.40 398.80 L 427.40 525.20 L 431.60 525.20 L 431.60 398.80 Z" fill="#8682f8" fill-rule="evenodd" group-id="13,91" node-id="859" stroke="none" target-height="126.400024" target-width="4.200012" target-x="427.4" target-y="398.8"></path></g><g clip-path="url(#SVGID_30_)" group-id="13,92" node-id="862"><path d="M 410.60 351.40 L 406.40 351.40 L 406.40 477.80 L 410.60 477.80 L 410.60 351.40 Z" fill="#8682f8" fill-rule="evenodd" group-id="13,92" node-id="864" stroke="none" target-height="126.399994" target-width="4.200012" target-x="406.4" target-y="351.4"></path></g><g clip-path="url(#SVGID_30_)" group-id="13,93" node-id="867"><path d="M 372.20 350.80 L 368.00 350.80 L 368.00 477.20 L 372.20 477.20 L 372.20 350.80 Z" fill="#8682f8" fill-rule="evenodd" group-id="13,93" node-id="869" stroke="none" target-height="126.400024" target-width="4.200012" target-x="368" target-y="350.8"></path></g><g clip-path="url(#SVGID_30_)" group-id="13,94" node-id="872"><path d="M 349.70 477.60 C 350.40 477.80 348.30 488.60 350.70 492.60 C 350.70 492.60 337.20 495.00 335.00 490.60 L 335.50 466.40 L 341.60 474.80 L 349.70 477.60 L 349.70 477.60 Z" fill="#fca68e" fill-rule="evenodd" group-id="13,94" node-id="874" stroke="none" target-height="28.600006" target-width="15.700012" target-x="335" target-y="466.4"></path></g><g clip-path="url(#SVGID_30_)" group-id="13,95" node-id="877"><path d="M 333.90 485.40 C 333.90 485.40 330.60 494.50 333.50 500.30 C 333.50 500.30 360.80 527.50 370.80 514.20 C 370.80 514.20 377.50 508.20 351.90 487.80 C 347.60 489.30 336.30 490.20 333.90 485.40 L 333.90 485.40 Z" fill="#ff7700" fill-rule="evenodd" group-id="13,95" node-id="879" stroke="none" target-height="42.100006" target-width="46.899994" target-x="330.6" target-y="485.4"></path></g><g clip-path="url(#SVGID_30_)" group-id="13,96" node-id="882"><path d="M 298.20 247.70 C 298.20 247.70 299.00 255.60 298.30 260.10 C 298.30 260.10 302.50 266.50 299.10 268.00 C 299.10 268.00 297.40 279.90 293.40 281.80 C 293.40 281.80 290.80 281.80 288.20 281.40 C 287.30 280.80 283.10 287.60 284.80 295.50 L 266.00 282.10 C 266.30 280.60 269.20 276.20 267.70 266.90 L 269.50 254.60 L 276.90 248.20 L 283.90 247.50 L 297.00 246.80 L 298.20 247.70 L 298.20 247.70 Z" fill="#fecec0" fill-rule="evenodd" group-id="13,96" node-id="884" stroke="none" target-height="48.699997" target-width="36.5" target-x="266" target-y="246.8"></path></g><g clip-path="url(#SVGID_34_)" group-id="14" node-id="890"><path d="M 262.80 266.20 C 262.80 266.20 264.10 272.10 290.60 282.30 C 290.60 282.30 271.10 276.30 262.40 287.40 L 259.60 275.10 L 262.80 266.20 L 262.80 266.20 Z" fill="#fcbeac" fill-rule="evenodd" group-id="14,97" node-id="892" stroke="none" target-height="21.199982" target-width="31" target-x="259.6" target-y="266.2"></path></g><g clip-path="url(#SVGID_36_)" group-id="15,98" node-id="898"><path d="M 273.90 232.60 C 271.40 232.90 269.40 239.00 265.20 239.20 C 265.20 239.20 259.00 243.80 260.70 253.10 C 260.70 253.10 259.20 258.70 261.60 260.70 C 261.60 260.70 266.80 265.10 268.00 272.50 C 268.00 272.50 270.70 265.30 271.10 259.20 C 271.10 259.20 272.10 253.00 277.20 257.60 C 277.20 257.60 279.20 258.10 281.40 261.70 C 281.40 261.70 282.60 261.20 282.20 255.90 C 282.20 255.90 293.60 241.90 298.00 251.50 C 298.20 251.60 305.30 228.70 273.90 232.60 L 273.90 232.60 Z" fill="#6d3405" fill-rule="evenodd" group-id="15,98" node-id="900" stroke="none" target-height="43.800003" target-width="46.299988" target-x="259" target-y="228.7"></path></g><g clip-path="url(#SVGID_36_)" group-id="15,99" node-id="903"><path d="M 300.10 358.10 C 300.10 358.10 304.50 360.00 322.80 356.00 C 322.80 356.00 334.10 353.20 338.50 354.10 C 338.50 354.10 344.10 355.70 350.90 353.80 C 350.90 353.80 353.70 353.40 354.60 353.10 C 354.60 353.10 357.00 353.20 357.90 353.30 C 357.90 353.30 363.00 355.30 365.00 355.50 C 365.00 355.50 366.90 354.90 364.30 353.40 C 364.30 353.40 360.40 351.00 360.10 350.90 C 360.10 350.90 361.40 351.20 362.10 350.60 C 362.10 350.60 367.50 353.00 369.30 353.80 C 369.30 353.80 371.80 353.90 370.30 351.60 C 370.30 351.60 366.40 349.10 365.30 348.70 C 365.30 348.70 370.30 350.90 372.70 351.70 C 372.70 351.70 375.90 350.60 372.10 348.60 C 372.10 348.60 372.00 347.40 369.70 346.20 C 369.70 346.20 370.80 345.90 371.00 345.30 C 371.00 345.30 373.00 346.50 373.70 344.40 C 373.70 344.40 370.20 341.30 368.10 340.90 C 368.10 340.90 365.20 340.00 364.40 339.40 C 364.40 339.40 363.60 340.20 356.50 337.90 C 356.50 337.90 343.30 339.60 340.10 338.60 C 340.10 338.60 332.30 338.60 329.40 339.40 C 329.40 339.40 321.50 339.40 319.30 338.80 L 315.10 339.60 L 309.30 341.40 L 304.70 341.40 L 302.50 345.30 L 300.10 358.10 L 300.10 358.10 Z" fill="#fecdc0" fill-rule="evenodd" group-id="15,99" node-id="905" stroke="none" target-height="22.100006" target-width="75.79999" target-x="300.1" target-y="337.9"></path></g><g clip-path="url(#SVGID_40_)" group-id="16,100" node-id="911"><path d="M 315.20 344.50 C 315.20 344.50 321.90 344.80 329.60 344.30 C 329.60 344.30 332.90 344.70 335.20 344.40 C 335.20 344.40 338.60 345.10 342.70 344.10 C 342.70 344.10 351.20 342.70 353.30 342.00 C 353.30 342.00 354.60 341.40 356.30 342.20 C 356.30 342.20 361.70 342.70 363.50 342.90 C 363.50 342.90 368.00 345.40 369.70 346.10 L 371.80 346.40 L 374.80 345.30 L 374.20 343.00 L 359.30 335.50 L 338.30 334.60 L 322.90 335.50 L 316.40 337.60 L 315.70 339.80 L 315.20 344.50 L 315.20 344.50 Z" fill="#f9c6b8" fill-rule="evenodd" group-id="16,100" node-id="913" stroke="none" target-height="11.799988" target-width="59.599976" target-x="315.2" target-y="334.6"></path></g><g clip-path="url(#SVGID_40_)" group-id="16,101" node-id="916"><path d="M 371.50 352.70 C 371.50 352.70 370.40 353.90 368.50 352.90 C 368.50 352.90 363.10 350.50 361.40 349.20 C 361.40 349.20 356.60 348.20 354.30 349.30 C 354.30 349.30 356.40 349.80 358.90 350.00 C 358.90 350.00 360.30 351.50 361.80 351.50 L 366.60 353.00 L 370.20 354.80 L 372.50 354.10 L 371.50 352.70 L 371.50 352.70 Z" fill="#fdbeac" fill-rule="evenodd" group-id="16,101" node-id="918" stroke="none" target-height="6.5999756" target-width="18.200012" target-x="354.3" target-y="348.2"></path></g><g clip-path="url(#SVGID_40_)" group-id="16,102" node-id="921"><path d="M 362.90 346.30 C 362.90 346.30 372.80 352.80 373.90 350.80 L 375.20 352.30 L 372.30 352.10 L 369.90 350.90 C 369.90 350.90 367.00 349.50 366.00 348.90 C 366.00 348.80 363.60 347.70 362.90 346.30 L 362.90 346.30 Z" fill="#fdbeac" fill-rule="evenodd" group-id="16,102" node-id="923" stroke="none" target-height="6.5" target-width="12.300018" target-x="362.9" target-y="346.3"></path></g><g clip-path="url(#SVGID_40_)" group-id="16,103" node-id="926"><path d="M 298.90 354.30 C 298.90 354.30 300.70 360.20 335.90 351.60 C 335.90 351.60 339.10 355.10 356.90 352.40 C 356.90 352.40 362.70 355.50 366.10 354.70 L 367.30 356.20 L 361.80 359.50 L 314.40 364.00 L 297.10 363.10 L 296.50 358.00 L 298.90 354.30 L 298.90 354.30 Z" fill="#fdbeac" fill-rule="evenodd" group-id="16,103" node-id="928" stroke="none" target-height="12.399994" target-width="70.79999" target-x="296.5" target-y="351.6"></path></g><g clip-path="url(#SVGID_40_)" group-id="16,104" node-id="931"><path d="M 364.50 340.30 C 364.50 340.30 368.20 343.00 369.00 342.80 C 369.00 342.80 371.20 346.10 373.50 344.30 L 375.50 345.50 C 375.50 345.50 372.70 348.10 368.70 343.40 C 368.70 343.40 365.60 341.60 364.50 340.30 L 364.50 340.30 Z" fill="#fdbeac" fill-rule="evenodd" group-id="16,104" node-id="933" stroke="none" target-height="7.8000183" target-width="11" target-x="364.5" target-y="340.3"></path></g><g clip-path="url(#SVGID_42_)" group-id="17" node-id="939"><path d="M 265.80 281.80 C 265.80 281.80 263.70 284.50 263.20 284.80 C 263.20 284.80 241.80 298.10 253.70 343.10 L 257.00 350.60 C 257.00 350.60 254.40 373.10 254.10 377.10 C 253.70 381.10 259.40 376.40 270.10 378.30 C 270.10 378.30 288.50 380.10 302.40 373.60 L 301.20 358.20 C 301.20 358.20 301.20 358.30 301.20 358.30 C 301.20 358.30 306.20 350.10 307.30 342.90 C 307.30 342.90 306.40 343.50 315.30 344.50 C 315.30 344.50 317.10 337.80 321.10 339.10 C 321.10 339.10 311.30 336.70 309.20 334.20 C 309.20 334.20 305.40 330.90 303.00 322.50 C 303.00 322.50 298.60 307.50 290.20 297.70 C 289.50 297.30 286.40 295.60 286.40 295.60 L 284.50 289.90 L 284.50 291.30 C 284.60 291.40 273.10 286.00 265.80 281.80 L 265.80 281.80 Z" fill="#ff7700" fill-rule="evenodd" group-id="17,105" node-id="941" stroke="none" target-height="99.30002" target-width="79.3" target-x="241.8" target-y="281.8"></path></g><g clip-path="url(#SVGID_46_)" group-id="18,106" node-id="947"><path d="M 258.50 303.00 C 258.50 303.00 272.10 362.10 298.00 361.20 C 298.00 361.20 273.80 370.00 258.50 303.00 L 258.50 303.00 Z" fill="#ff5e00" fill-rule="evenodd" group-id="18,106" node-id="949" stroke="none" target-height="67" target-width="39.5" target-x="258.5" target-y="303"></path></g><g clip-path="url(#SVGID_46_)" group-id="18,107" node-id="952"><path d="M 281.80 301.00 C 281.80 301.00 261.10 280.30 255.30 305.30 C 255.30 305.30 258.90 278.60 281.80 301.00 L 281.80 301.00 Z" fill="#ff5e00" fill-rule="evenodd" group-id="18,107" node-id="954" stroke="none" target-height="26.699982" target-width="26.499985" target-x="255.3" target-y="278.6"></path></g><g clip-path="url(#SVGID_46_)" group-id="18,108" node-id="957"><path d="M 253.80 302.60 C 253.80 302.60 252.00 323.00 260.10 328.80 C 260.10 328.80 266.80 335.60 272.20 341.00 C 272.20 341.00 258.40 329.00 255.70 325.10 C 255.70 325.20 251.30 316.20 253.80 302.60 L 253.80 302.60 Z" fill="#ff5e00" fill-rule="evenodd" group-id="18,108" node-id="959" stroke="none" target-height="38.399994" target-width="20.90001" target-x="251.3" target-y="302.6"></path></g><g clip-path="url(#SVGID_46_)" group-id="18,109" node-id="962"><path d="M 263.90 285.10 C 263.90 285.10 279.30 290.40 285.60 295.80 C 285.60 295.80 277.70 290.60 263.90 285.10 L 263.90 285.10 Z" fill="#ff5e00" fill-rule="evenodd" group-id="18,109" node-id="964" stroke="none" target-height="10.699982" target-width="21.700012" target-x="263.9" target-y="285.1"></path></g><g clip-path="url(#SVGID_46_)" group-id="18,110" node-id="967"><path d="M 280.90 308.30 C 280.90 308.30 288.80 335.40 295.90 338.50 C 295.90 338.50 298.80 340.70 305.80 342.70 C 305.80 342.70 293.80 341.20 291.10 335.10 C 291.10 335.10 285.10 326.40 280.90 308.30 L 280.90 308.30 Z" fill="#ff5e00" fill-rule="evenodd" group-id="18,110" node-id="969" stroke="none" target-height="34.400024" target-width="24.899994" target-x="280.9" target-y="308.3"></path></g><g clip-path="url(#SVGID_46_)" group-id="18,111" node-id="972"><path d="M 307.40 342.80 C 307.40 342.80 301.30 359.60 294.40 361.00 C 294.40 361.00 302.90 365.90 307.40 342.80 L 307.40 342.80 Z" fill="#ff5e00" fill-rule="evenodd" group-id="18,111" node-id="974" stroke="none" target-height="23.100006" target-width="13" target-x="294.4" target-y="342.8"></path></g><g clip-path="url(#SVGID_46_)" group-id="18,112" node-id="977"><path d="M 255.80 349.70 C 255.80 349.70 258.30 353.80 258.50 356.70 C 258.50 356.70 255.00 372.30 260.20 375.30 C 260.20 375.30 281.10 382.60 303.40 373.30 L 305.70 379.10 L 265.00 393.70 C 265.00 393.70 238.40 388.00 240.60 383.10 C 242.80 378.20 247.60 353.80 247.60 353.80 L 255.80 349.70 L 255.80 349.70 Z" fill="#ff5e00" fill-rule="evenodd" group-id="18,112" node-id="979" stroke="none" target-height="44" target-width="67.30002" target-x="238.4" target-y="349.7"></path></g><g clip-path="url(#SVGID_46_)" group-id="18,113" node-id="982"><path d="M 301.20 315.60 C 301.20 315.60 301.10 337.90 320.40 339.30 L 321.50 325.80 L 301.20 315.60 L 301.20 315.60 Z" fill="#ff5e00" fill-rule="evenodd" group-id="18,113" node-id="984" stroke="none" target-height="23.699982" target-width="20.399994" target-x="301.1" target-y="315.6"></path></g><g clip-path="url(#SVGID_46_)" group-id="18,114" node-id="987"><path d="M 285.90 295.80 C 285.90 295.80 294.90 339.80 301.50 341.40 C 301.50 341.40 293.40 339.80 285.90 295.80 L 285.90 295.80 Z" fill="#ff5e00" fill-rule="evenodd" group-id="18,114" node-id="989" stroke="none" target-height="45.600006" target-width="15.600006" target-x="285.9" target-y="295.8"></path></g><g clip-path="url(#SVGID_48_)" group-id="19" node-id="995"><path d="M 421.90 359.90 C 421.90 359.90 419.40 358.60 420.50 356.30 C 420.50 356.30 422.00 352.40 418.10 353.30 C 418.10 353.30 416.70 353.90 415.40 356.90 C 415.40 356.90 414.90 358.40 411.90 357.90 C 411.90 357.90 409.70 358.10 410.10 361.60 C 410.10 361.60 411.20 363.70 408.30 363.20 C 408.30 363.20 405.10 363.10 406.20 367.40 C 406.20 367.40 407.90 371.20 410.90 372.50 L 416.80 372.60 C 416.80 372.60 420.00 372.10 421.20 370.30 C 421.20 370.30 421.90 368.40 420.40 367.20 C 420.40 367.20 418.40 365.20 420.70 363.80 C 420.70 363.80 423.10 363.70 422.40 360.50 L 421.90 359.90 L 421.90 359.90 Z" fill="#ff3f67" fill-rule="evenodd" group-id="19,115" node-id="997" stroke="none" target-height="20.200012" target-width="18" target-x="405.1" target-y="352.4"></path></g><g clip-path="url(#SVGID_52_)" group-id="20,116" node-id="1003"><path d="M 419.60 353.20 C 419.60 353.20 412.20 368.50 412.60 373.90 C 412.70 373.90 415.80 361.60 419.60 353.20 L 419.60 353.20 Z" fill="#ffffff" fill-rule="evenodd" group-id="20,116" node-id="1005" stroke="none" target-height="20.699982" target-width="7.399994" target-x="412.2" target-y="353.2"></path></g><g clip-path="url(#SVGID_52_)" group-id="20,117" node-id="1008"><path d="M 414.30 368.60 C 414.30 368.60 416.60 370.30 419.70 367.00 C 419.60 367.00 416.40 369.80 414.30 368.60 L 414.30 368.60 Z" fill="#ffffff" fill-rule="evenodd" group-id="20,117" node-id="1010" stroke="none" target-height="3.2999878" target-width="5.4000244" target-x="414.3" target-y="367"></path></g><g clip-path="url(#SVGID_52_)" group-id="20,118" node-id="1013"><path d="M 416.10 362.50 C 416.10 362.50 417.80 363.60 420.90 361.20 C 421.00 361.20 418.10 363.10 416.10 362.50 L 416.10 362.50 Z" fill="#ffffff" fill-rule="evenodd" group-id="20,118" node-id="1015" stroke="none" target-height="2.399994" target-width="4.899994" target-x="416.1" target-y="361.2"></path></g><g clip-path="url(#SVGID_52_)" group-id="20,119" node-id="1018"><path d="M 417.80 357.60 C 417.80 357.60 419.70 357.10 420.30 355.90 C 420.30 355.90 419.80 357.40 417.80 357.60 L 417.80 357.60 Z" fill="#ffffff" fill-rule="evenodd" group-id="20,119" node-id="1020" stroke="none" target-height="1.7000122" target-width="2.5" target-x="417.8" target-y="355.9"></path></g><g clip-path="url(#SVGID_52_)" group-id="20,120" node-id="1023"><path d="M 417.00 359.90 C 417.00 359.90 415.70 359.60 415.40 357.50 C 415.40 357.60 415.40 359.70 417.00 359.90 L 417.00 359.90 Z" fill="#ffffff" fill-rule="evenodd" group-id="20,120" node-id="1025" stroke="none" target-height="2.399994" target-width="1.6000061" target-x="415.4" target-y="357.5"></path></g><g clip-path="url(#SVGID_54_)" group-id="21" node-id="1031"><path d="M 399.60 357.20 C 399.60 357.20 402.60 355.70 401.50 353.00 C 401.50 353.00 399.90 348.30 404.60 349.50 C 404.60 349.50 406.20 350.30 407.60 354.00 C 407.60 354.00 408.20 355.80 411.70 355.30 C 411.70 355.30 414.30 355.70 413.70 359.90 C 413.70 359.90 412.20 362.30 415.80 361.90 C 415.80 361.90 419.70 361.90 418.10 367.10 C 418.10 367.10 415.80 371.60 412.10 373.00 L 405.00 372.80 C 405.00 372.80 400.70 371.50 400.00 369.90 C 399.90 369.90 399.00 367.50 401.10 366.10 C 401.10 366.10 403.60 363.80 400.90 362.00 C 400.90 361.90 397.70 360.60 399.10 357.90 C 399.30 357.50 399.30 357.60 399.60 357.20 L 399.60 357.20 Z" fill="#ff8ea2" fill-rule="evenodd" group-id="21,121" node-id="1033" stroke="none" target-height="24.700012" target-width="22" target-x="397.7" target-y="348.3"></path></g><g clip-path="url(#SVGID_58_)" group-id="22,122" node-id="1039"><path d="M 402.00 349.30 C 402.00 349.30 410.20 363.70 411.20 375.30 C 411.20 375.30 409.30 363.90 402.00 349.30 L 402.00 349.30 Z" fill="#ffffff" fill-rule="evenodd" group-id="22,122" node-id="1041" stroke="none" target-height="26" target-width="9.200012" target-x="402" target-y="349.3"></path></g><g clip-path="url(#SVGID_58_)" group-id="22,123" node-id="1044"><path d="M 410.40 370.60 C 410.40 370.60 414.60 368.90 414.10 363.00 C 414.20 363.00 414.70 367.70 410.40 370.60 L 410.40 370.60 Z" fill="#ffffff" fill-rule="evenodd" group-id="22,123" node-id="1046" stroke="none" target-height="7.600006" target-width="4.3000183" target-x="410.4" target-y="363"></path></g><g clip-path="url(#SVGID_58_)" group-id="22,124" node-id="1049"><path d="M 409.30 366.80 C 409.30 366.80 407.00 370.00 402.00 366.10 C 402.00 366.10 406.10 369.40 409.30 366.80 L 409.30 366.80 Z" fill="#ffffff" fill-rule="evenodd" group-id="22,124" node-id="1051" stroke="none" target-height="3.899994" target-width="7.299988" target-x="402" target-y="366.1"></path></g><g clip-path="url(#SVGID_58_)" group-id="22,125" node-id="1054"><path d="M 407.30 361.00 C 407.30 361.00 404.80 364.00 400.30 359.30 C 400.40 359.30 404.20 363.40 407.30 361.00 L 407.30 361.00 Z" fill="#ffffff" fill-rule="evenodd" group-id="22,125" node-id="1056" stroke="none" target-height="4.700012" target-width="7" target-x="400.3" target-y="359.3"></path></g><g clip-path="url(#SVGID_58_)" group-id="22,126" node-id="1059"><path d="M 404.80 355.70 C 404.80 355.70 403.30 356.60 402.00 354.80 C 402.00 354.80 403.10 356.10 404.80 355.70 L 404.80 355.70 Z" fill="#ffffff" fill-rule="evenodd" group-id="22,126" node-id="1061" stroke="none" target-height="1.8000183" target-width="2.7999878" target-x="402" target-y="354.8"></path></g><g clip-path="url(#SVGID_58_)" group-id="22,127" node-id="1064"><path d="M 408.60 364.50 C 408.60 364.50 411.20 363.30 410.90 357.50 C 410.90 357.50 411.10 361.90 408.60 364.50 L 408.60 364.50 Z" fill="#ffffff" fill-rule="evenodd" group-id="22,127" node-id="1066" stroke="none" target-height="7" target-width="2.600006" target-x="408.6" target-y="357.5"></path></g><g clip-path="url(#SVGID_58_)" group-id="22,128" node-id="1069"><path d="M 405.90 357.50 C 405.90 357.50 407.10 355.50 405.90 352.00 C 405.90 352.00 406.80 354.60 405.90 357.50 L 405.90 357.50 Z" fill="#ffffff" fill-rule="evenodd" group-id="22,128" node-id="1071" stroke="none" target-height="5.5" target-width="1.2000122" target-x="405.9" target-y="352"></path></g><g clip-path="url(#SVGID_58_)" group-id="22,129" node-id="1074"><path d="M 403.40 348.40 C 403.00 348.80 402.00 349.50 401.80 350.10 C 401.30 351.60 402.00 353.00 402.50 354.20 C 402.70 354.70 401.90 355.90 401.60 356.40 C 401.00 357.70 399.40 358.10 399.60 359.80 C 399.70 360.10 400.00 360.40 400.20 360.60 C 400.40 360.90 400.60 361.40 401.00 361.60 C 401.70 362.10 402.40 362.30 402.60 363.20 C 403.00 365.30 400.50 366.70 400.80 368.70 C 401.20 371.80 407.20 372.10 405.50 375.70 C 405.30 376.10 405.10 376.40 404.80 376.70 C 402.00 379.20 397.70 377.80 394.90 376.20 C 393.20 375.30 391.90 374.50 390.90 372.80 C 389.40 370.20 389.60 366.50 390.00 363.60 C 390.90 358.10 393.20 352.40 398.00 349.20 C 399.10 348.50 400.20 348.10 401.50 347.80 C 401.90 347.70 402.50 347.50 402.90 347.60 C 403.30 347.70 403.60 348.60 403.60 349.00 C 403.60 349.20 403.40 349.70 403.60 349.60" fill="#ff8096" fill-rule="evenodd" group-id="22,129" node-id="1076" stroke="none" target-height="31.700012" target-width="17.800018" target-x="389.4" target-y="347.5"></path></g><g clip-path="url(#SVGID_60_)" group-id="23" node-id="1082"><path d="M 418.50 372.70 L 403.30 372.70 L 404.50 383.30 C 404.50 383.30 404.60 385.90 406.40 386.10 L 415.40 386.20 C 415.40 386.20 417.10 386.40 417.30 383.00 L 418.50 372.70 L 418.50 372.70 Z" fill="#018cda" fill-rule="evenodd" group-id="23,130" node-id="1084" stroke="none" target-height="13.699982" target-width="15.200012" target-x="403.3" target-y="372.7"></path></g><g clip-path="url(#SVGID_64_)" group-id="24" node-id="1090"><path d="M 417.30 367.30 C 416.80 373.10 416.70 378.70 415.40 384.40 C 414.80 386.70 413.50 387.40 411.70 388.60 C 411.60 388.70 411.20 388.90 411.30 389.20 C 411.90 390.10 416.40 389.60 417.20 389.60 C 424.70 389.60 427.50 386.20 427.00 377.90 C 426.90 375.70 426.00 371.10 423.50 370.10 C 423.40 370.10 423.30 370.00 423.20 370.00 C 422.90 369.90 423.00 369.90 422.70 369.90 C 420.60 369.80 418.60 368.90 416.50 368.80 C 416.40 368.80 415.20 368.80 415.20 368.70" fill="#007ac5" fill-rule="evenodd" group-id="24,131" node-id="1092" stroke="none" target-height="22.800018" target-width="16.299988" target-x="411.2" target-y="367.3"></path></g><path d="M 172.40 343.30 C 172.40 343.30 157.20 361.10 164.40 409.30 L 173.50 424.50 C 173.50 424.60 193.70 382.40 172.40 343.30 L 172.40 343.30 Z" fill="#faa5b4" fill-rule="evenodd" node-id="1096" stroke="none" target-height="81.30002" target-width="36.5" target-x="157.2" target-y="343.3"></path><g clip-path="url(#SVGID_66_)" group-id="25" node-id="1100"><path d="M 172.00 434.50 C 172.00 434.50 169.60 374.00 172.30 351.80 C 172.30 351.70 171.80 416.80 172.00 434.50 L 172.00 434.50 Z" fill="#ffffff" fill-rule="evenodd" group-id="25,132" node-id="1102" stroke="none" target-height="82.79999" target-width="2.699997" target-x="169.6" target-y="351.7"></path></g><path d="M 195.20 380.00 C 195.20 380.00 168.30 386.30 172.40 424.60 C 172.40 424.60 194.90 426.40 195.20 380.00 L 195.20 380.00 Z" fill="#ff8ea2" fill-rule="evenodd" node-id="1106" stroke="none" target-height="46.399994" target-width="26.899994" target-x="168.3" target-y="380"></path><g clip-path="url(#SVGID_68_)" group-id="26" node-id="1110"><path d="M 195.20 380.50 C 195.20 380.50 178.30 408.00 173.50 427.30 C 173.50 427.40 179.80 407.40 195.20 380.50 L 195.20 380.50 Z" fill="#ffffff" fill-rule="evenodd" group-id="26,133" node-id="1112" stroke="none" target-height="46.899994" target-width="21.699997" target-x="173.5" target-y="380.5"></path></g><path d="M 151.40 378.40 C 151.40 378.40 143.30 400.90 160.50 424.60 L 171.70 433.10 C 171.70 433.10 178.50 399.60 151.40 378.40 L 151.40 378.40 Z" fill="#ff3f67" fill-rule="evenodd" node-id="1116" stroke="none" target-height="54.700012" target-width="35.199997" target-x="143.3" target-y="378.4"></path><g clip-path="url(#SVGID_70_)" group-id="27" node-id="1120"><path d="M 152.80 380.00 C 152.80 380.00 155.80 423.30 183.80 442.20 C 183.90 442.20 160.00 428.00 152.80 380.00 L 152.80 380.00 Z" fill="#ffffff" fill-rule="evenodd" group-id="27,134" node-id="1122" stroke="none" target-height="62.200012" target-width="31.09999" target-x="152.8" target-y="380"></path></g><path d="M 187.10 457.90 L 156.80 457.80 L 159.20 493.60 C 159.20 493.60 159.40 502.40 163.10 503.10 L 181.10 503.30 C 181.10 503.30 184.50 504.00 184.90 492.60 L 187.10 457.90 L 187.10 457.90 Z" fill="#018cda" fill-rule="evenodd" node-id="1126" stroke="none" target-height="46.200012" target-width="30.300003" target-x="156.8" target-y="457.8"></path><g clip-path="url(#SVGID_72_)" group-id="28" node-id="1130"><path d="M 184.70 439.80 C 183.70 459.50 183.50 478.50 180.80 497.70 C 179.70 505.50 177.00 507.80 173.40 511.90 C 173.10 512.20 172.30 513.10 172.60 513.90 C 173.70 517.10 182.70 515.20 184.30 515.20 C 199.20 515.20 204.90 503.60 203.90 475.40 C 203.60 467.80 201.90 452.20 196.90 448.80 C 196.70 448.70 196.60 448.60 196.40 448.50 C 195.80 448.20 195.90 448.30 195.50 448.20 C 191.30 447.80 187.30 444.80 183.10 444.40 C 182.90 444.40 180.60 444.40 180.60 444.10" fill="#007ac5" fill-rule="evenodd" group-id="28,135" node-id="1132" stroke="none" target-height="77.29999" target-width="32.59999" target-x="172.3" target-y="439.8"></path></g><path d="M 145.10 410.00 C 145.10 410.00 142.30 442.40 172.50 445.30 C 172.50 445.30 195.40 435.50 195.10 409.30 C 195.30 409.20 173.90 412.00 170.20 428.50 C 170.30 428.60 166.60 417.30 145.10 410.00 L 145.10 410.00 Z" fill="#faa5b4" fill-rule="evenodd" node-id="1136" stroke="none" target-height="36.099976" target-width="53.09999" target-x="142.3" target-y="409.2"></path><g clip-path="url(#SVGID_74_)" group-id="29,136" node-id="1140"><path d="M 192.30 413.60 C 192.30 413.60 176.20 428.70 171.70 439.80 C 171.70 439.80 174.30 432.70 192.30 413.60 L 192.30 413.60 Z" fill="#ffffff" fill-rule="evenodd" group-id="29,136" node-id="1142" stroke="none" target-height="26.199982" target-width="20.600006" target-x="171.7" target-y="413.6"></path></g><g clip-path="url(#SVGID_74_)" group-id="29,137" node-id="1145"><path d="M 145.10 409.40 C 145.10 409.40 157.10 438.20 171.70 439.80 C 171.70 439.80 161.20 441.10 145.10 409.40 L 145.10 409.40 Z" fill="#ffffff" fill-rule="evenodd" group-id="29,137" node-id="1147" stroke="none" target-height="31.700012" target-width="26.59999" target-x="145.1" target-y="409.4"></path></g><path d="M 146.20 423.10 C 146.20 423.10 147.40 447.60 172.00 455.40 C 172.00 455.50 182.30 431.70 146.20 423.10 L 146.20 423.10 Z" fill="#ff8ea2" fill-rule="evenodd" node-id="1151" stroke="none" target-height="32.399994" target-width="36.100006" target-x="146.2" target-y="423.1"></path><g clip-path="url(#SVGID_76_)" group-id="30" node-id="1155"><path d="M 149.40 426.30 C 149.40 426.30 164.20 449.10 177.80 449.90 C 177.80 450.00 167.10 450.00 149.40 426.30 L 149.40 426.30 Z" fill="#ffffff" fill-rule="evenodd" group-id="30,138" node-id="1157" stroke="none" target-height="23.700012" target-width="28.40001" target-x="149.4" target-y="426.3"></path></g><path d="M 189.60 425.90 C 189.60 425.90 162.70 435.20 172.00 453.50 C 172.00 453.50 190.60 455.00 189.60 425.90 L 189.60 425.90 Z" fill="#ff3f67" fill-rule="evenodd" node-id="1161" stroke="none" target-height="29.100006" target-width="27.90001" target-x="162.7" target-y="425.9"></path><g clip-path="url(#SVGID_78_)" group-id="31" node-id="1165"><path d="M 189.40 426.30 C 189.40 426.30 180.70 446.30 168.50 455.00 C 168.50 455.00 178.70 447.10 189.40 426.30 L 189.40 426.30 Z" fill="#ffffff" fill-rule="evenodd" group-id="31,139" node-id="1167" stroke="none" target-height="28.700012" target-width="20.899994" target-x="168.5" target-y="426.3"></path></g><path d="M 160.70 445.40 C 160.70 445.40 158.70 456.70 170.00 457.90 C 169.90 457.80 179.40 448.40 160.70 445.40 L 160.70 445.40 Z" fill="#ff3f67" fill-rule="evenodd" node-id="1171" stroke="none" target-height="12.5" target-width="20.699997" target-x="158.7" target-y="445.4"></path><g clip-path="url(#SVGID_80_)" group-id="32" node-id="1175"><path d="M 173.30 458.00 C 173.30 458.00 161.60 454.90 159.70 441.90 C 159.80 441.90 160.30 451.50 173.30 458.00 L 173.30 458.00 Z" fill="#ffffff" fill-rule="evenodd" group-id="32,140" node-id="1177" stroke="none" target-height="16.100006" target-width="13.600006" target-x="159.7" target-y="441.9"></path></g><path d="M 183.00 445.10 C 183.00 445.10 172.40 444.20 169.60 457.60 C 169.60 457.50 181.70 461.90 183.00 445.10 L 183.00 445.10 Z" fill="#ff8ea2" fill-rule="evenodd" node-id="1181" stroke="none" target-height="17.699982" target-width="13.399994" target-x="169.6" target-y="444.2"></path><g clip-path="url(#SVGID_82_)" group-id="33" node-id="1185"><path d="M 167.60 458.00 C 167.60 458.00 177.80 457.90 182.10 445.30 C 182.10 445.40 178.10 455.90 167.60 458.00 L 167.60 458.00 Z" fill="#ffffff" fill-rule="evenodd" group-id="33,141" node-id="1187" stroke="none" target-height="12.700012" target-width="14.5" target-x="167.6" target-y="445.3"></path></g><path d="M 67.20 160.70 C 67.20 160.70 31.60 180.80 32.90 201.30 C 32.90 201.30 38.20 216.30 49.70 199.20 C 49.70 199.30 45.10 183.30 67.20 160.70 L 67.20 160.70 Z" fill="#e2e3fe" fill-rule="evenodd" node-id="1191" stroke="none" target-height="55.600006" target-width="35.6" target-x="31.6" target-y="160.7"></path><path d="M 233.10 96.40 C 233.10 96.40 260.00 74.90 287.70 80.70 C 287.70 80.70 300.40 90.10 282.50 93.20 C 282.50 93.20 256.20 88.10 229.60 106.80 C 229.70 106.80 224.30 106.10 233.10 96.40 L 233.10 96.40 Z" fill="#e2e3fe" fill-rule="evenodd" node-id="1193" stroke="none" target-height="31.900002" target-width="76.09999" target-x="224.3" target-y="74.9"></path><path d="M 75.20 425.20 C 75.20 425.20 89.60 481.90 118.30 486.10 C 118.30 486.10 136.10 484.90 119.80 469.00 C 119.90 469.00 92.60 455.30 75.20 425.20 L 75.20 425.20 Z" fill="#e2e3fe" fill-rule="evenodd" node-id="1195" stroke="none" target-height="60.899994" target-width="60.90001" target-x="75.2" target-y="425.2"></path><path d="M 513.50 224.80 L 469.30 222.10 C 469.30 222.10 465.50 220.90 464.40 224.00 L 436.00 284.70 C 436.00 284.70 433.90 288.20 437.50 289.10 L 481.50 306.20 C 481.50 306.20 485.30 308.00 487.70 305.30 L 515.10 229.90 C 515.10 230.00 517.30 225.80 513.50 224.80 L 513.50 224.80 Z" fill="#b1b2ff" fill-rule="evenodd" node-id="1197" stroke="none" target-height="87.100006" target-width="83.399994" target-x="433.9" target-y="220.9"></path><path d="M 507.10 231.00 L 470.00 228.60 C 470.00 228.60 466.90 227.60 466.00 230.20 L 442.70 281.90 C 442.70 281.90 440.90 284.80 443.90 285.60 L 480.70 298.00 C 480.70 298.00 483.80 299.50 485.80 297.30 L 508.50 235.50 C 508.40 235.40 510.20 231.90 507.10 231.00 L 507.10 231.00 Z" fill="#8682f8" fill-rule="evenodd" node-id="1199" stroke="none" target-height="71.899994" target-width="69.30002" target-x="440.9" target-y="227.6"></path><path d="M 506.40 229.70 L 469.30 227.30 C 469.30 227.30 466.20 226.30 465.30 228.90 L 442.00 280.60 C 442.00 280.60 440.20 283.50 443.20 284.30 L 480.00 296.70 C 480.00 296.70 483.10 298.20 485.10 296.00 L 507.80 234.20 C 507.70 234.10 509.50 230.50 506.40 229.70 L 506.40 229.70 Z" fill="#fcfffe" fill-rule="evenodd" node-id="1201" stroke="none" target-height="71.90001" target-width="69.29999" target-x="440.2" target-y="226.3"></path><path d="M 499.50 238.10 L 466.60 234.70 L 466.40 235.40 L 499.30 238.80 L 499.50 238.10 Z" fill="#edecff" fill-rule="evenodd" node-id="1203" stroke="none" target-height="4.100006" target-width="33.100006" target-x="466.4" target-y="234.7"></path><path d="M 487.60 257.80 L 459.90 252.50 L 459.70 253.10 L 487.30 258.40 L 487.60 257.80 Z" fill="#edecff" fill-rule="evenodd" node-id="1205" stroke="none" target-height="5.899994" target-width="27.899994" target-x="459.7" target-y="252.5"></path><path d="M 476.60 273.10 L 453.90 267.80 L 453.70 268.40 L 476.40 273.70 L 476.60 273.10 Z" fill="#edecff" fill-rule="evenodd" node-id="1207" stroke="none" target-height="5.9000244" target-width="22.899994" target-x="453.7" target-y="267.8"></path><path d="M 498.20 243.10 L 465.30 239.00 L 465.10 239.70 L 497.90 243.80 L 498.20 243.10 Z" fill="#edecff" fill-rule="evenodd" node-id="1209" stroke="none" target-height="4.800003" target-width="33.100006" target-x="465.1" target-y="239"></path><path d="M 486.00 262.20 L 458.50 256.20 L 458.20 256.80 L 485.80 262.80 L 486.00 262.20 Z" fill="#edecff" fill-rule="evenodd" node-id="1211" stroke="none" target-height="6.5999756" target-width="27.799988" target-x="458.2" target-y="256.2"></path><path d="M 475.40 277.50 L 452.70 271.50 L 452.50 272.10 L 475.20 278.10 L 475.40 277.50 Z" fill="#edecff" fill-rule="evenodd" node-id="1213" stroke="none" target-height="6.600006" target-width="22.899994" target-x="452.5" target-y="271.5"></path><path d="M 493.60 250.10 L 463.70 245.60 L 463.40 246.10 L 493.40 250.60 L 493.60 250.10 Z" fill="#edecff" fill-rule="evenodd" node-id="1215" stroke="none" target-height="5" target-width="30.200012" target-x="463.4" target-y="245.6"></path><path d="M 481.60 268.00 L 456.70 262.00 L 456.40 262.40 L 481.40 268.50 L 481.60 268.00 Z" fill="#edecff" fill-rule="evenodd" node-id="1217" stroke="none" target-height="6.5" target-width="25.200012" target-x="456.4" target-y="262"></path><path d="M 471.80 283.30 L 451.20 277.20 L 451.00 277.60 L 471.60 283.70 L 471.80 283.30 Z" fill="#edecff" fill-rule="evenodd" node-id="1219" stroke="none" target-height="6.5" target-width="20.799988" target-x="451" target-y="277.2"></path><path d="M 473.50 229.40 L 499.10 231.20 C 499.10 231.20 500.70 227.90 496.10 226.60 C 496.10 226.60 491.70 226.50 493.60 221.50 C 493.60 221.50 493.80 216.40 487.50 218.30 C 487.50 218.30 484.90 219.30 484.20 222.80 C 484.20 222.80 483.60 225.10 479.20 225.60 C 479.10 225.60 475.10 225.20 473.50 229.40 L 473.50 229.40 Z" fill="#8682f8" fill-rule="evenodd" node-id="1221" stroke="none" target-height="14.800003" target-width="27.200012" target-x="473.5" target-y="216.4"></path><path d="M 489.50 220.50 C 490.50 220.90 491.00 222.20 490.50 223.40 C 490.00 224.60 488.80 225.20 487.80 224.80 C 486.80 224.40 486.30 223.10 486.80 221.90 C 487.20 220.70 488.40 220.10 489.50 220.50 L 489.50 220.50 Z" fill="#ffffff" fill-rule="evenodd" node-id="1223" stroke="none" target-height="5.099991" target-width="4.700012" target-x="486.3" target-y="220.1"></path><path d="M 557.40 279.70 C 563.80 279.70 569.00 284.90 569.00 291.30 C 569.00 297.70 563.80 302.90 557.40 302.90 C 551.00 302.90 545.80 297.70 545.80 291.30 C 545.70 284.90 550.90 279.70 557.40 279.70 L 557.40 279.70 Z" fill="#e2e3fe" fill-rule="evenodd" node-id="1225" stroke="none" target-height="23.199982" target-width="23.299988" target-x="545.7" target-y="279.7"></path></svg>