<?xml version="1.0" standalone="no"?><!DOCTYPE svg PUBLIC "-//W3C//DTD SVG 1.1//EN" "http://www.w3.org/Graphics/SVG/1.1/DTD/svg11.dtd"><svg height="1000" node-id="1" sillyvg="true" template-height="1000" template-width="1000" version="1.1" viewBox="0 0 1000 1000" width="1000" xmlns="http://www.w3.org/2000/svg" xmlns:xlink="http://www.w3.org/1999/xlink"><defs node-id="192"><clipPath id="XMLID_2_" node-id="7"><path d="M 206.59 732.02 C 206.59 732.02 -28.06 642.97 82.90 338.40 C 82.90 338.40 149.81 174.97 326.59 199.98 C 326.59 199.98 391.06 210.21 454.60 248.86 C 518.14 287.51 633.34 204.52 686.01 185.20 C 738.69 165.87 889.08 177.07 908.08 310.30 C 926.04 436.23 768.62 705.87 686.01 732.02 L 206.59 732.02 Z" fill="#000000" fill-rule="nonzero" node-id="195" stroke="none" target-height="566.147" target-width="954.099" target-x="-28.058" target-y="165.871"></path></clipPath><clipPath id="XMLID_3_" node-id="59"><path d="M 162.58 505.36 C 162.58 505.36 197.76 490.96 298.11 531.32 C 398.47 571.69 389.95 535.40 396.24 524.29 C 402.54 513.18 386.62 481.33 357.36 478.00 C 328.11 474.67 338.85 459.12 348.11 448.75 C 357.36 438.38 331.31 416.82 290.83 444.45 C 290.83 444.45 179.70 487.68 161.10 503.09 L 162.58 505.36 Z" fill="#000000" fill-rule="nonzero" node-id="199" stroke="none" target-height="154.86496" target-width="241.435" target-x="161.103" target-y="416.821"></path></clipPath><clipPath id="XMLID_4_" node-id="66"><path d="M 160.39 501.14 C 160.39 501.14 161.81 502.81 166.59 495.03 C 166.59 495.03 187.21 442.82 220.81 425.05 C 220.81 425.05 227.20 421.99 235.81 405.33 C 244.42 388.67 279.14 351.73 292.75 391.17 C 306.35 430.60 300.52 438.66 288.58 445.88 C 288.58 445.88 175.22 492.54 164.41 503.09 L 160.39 501.14 Z" fill="#000000" fill-rule="nonzero" node-id="203" stroke="none" target-height="151.36002" target-width="145.966" target-x="160.388" target-y="351.728"></path></clipPath><clipPath id="SVGID_1_" node-id="75"><path d="M 196.12 531.45 L 181.70 509.68 C 180.98 508.59 179.50 508.29 178.40 509.01 L 166.21 517.09 C 165.11 517.82 164.81 519.31 165.53 520.41 L 171.75 529.79 L 135.39 534.59 C 134.91 534.65 134.45 534.75 134.00 534.87 C 133.73 534.92 133.45 534.98 133.18 535.06 L 131.07 535.65 L 126.83 534.02 C 125.27 533.42 123.54 533.47 122.01 534.14 L 105.95 541.25 C 104.03 542.10 102.66 543.85 102.29 545.92 L 101.78 548.83 L 100.87 549.35 C 100.12 549.78 99.44 550.29 98.84 550.87 C 98.65 550.97 98.47 551.07 98.29 551.19 L 27.30 598.26 C 26.17 599.00 25.86 600.54 26.61 601.67 L 34.77 613.99 C 35.54 615.15 37.12 615.47 38.27 614.70 L 100.24 573.62 L 111.66 607.54 L 172.44 583.98 L 152.32 552.20 L 173.49 549.79 C 175.18 549.59 190.23 546.77 191.53 545.85 C 192.17 545.61 192.80 545.29 193.39 544.89 C 197.84 541.95 199.07 535.89 196.12 531.45 Z" fill="#000000" fill-rule="nonzero" node-id="207" stroke="none" target-height="107.185" target-width="173.214" target-x="25.858" target-y="508.287"></path></clipPath><clipPath id="SVGID_2_" node-id="85"><path d="M 279.00 661.54 C 279.00 661.54 275.46 626.82 212.01 609.74 L 172.45 583.98 L 144.97 594.63 L 172.45 642.57 C 172.45 642.57 204.28 646.58 218.95 654.28 C 239.34 664.99 246.04 683.94 246.04 683.94 L 279.00 661.54 Z" fill="#000000" fill-rule="nonzero" node-id="211" stroke="none" target-height="99.961" target-width="134.02798" target-x="144.97" target-y="583.982"></path></clipPath><clipPath id="SVGID_3_" node-id="92"><path d="M 138.39 657.58 L 182.70 671.13 C 182.70 671.13 237.96 621.33 217.85 598.63 C 217.85 598.63 205.40 588.38 144.97 594.63 L 111.66 607.54 C 111.66 607.54 107.32 627.19 121.18 637.44 C 121.18 637.44 133.26 645.45 146.44 642.52 C 160.75 639.34 150.33 649.04 138.39 657.58 Z" fill="#000000" fill-rule="nonzero" node-id="215" stroke="none" target-height="82.75098" target-width="130.634" target-x="107.323" target-y="588.377"></path></clipPath><clipPath id="XMLID_5_" node-id="99"><path d="M 135.83 669.02 L 118.85 687.08 L 132.35 725.20 L 166.64 725.20 C 168.51 725.05 168.59 710.23 159.00 710.93 C 148.97 711.66 145.88 706.10 144.97 699.32 C 144.97 699.32 143.17 688.49 151.94 680.39 L 135.83 669.02 Z" fill="#000000" fill-rule="nonzero" node-id="219" stroke="none" target-height="56.17505" target-width="49.739998" target-x="118.852" target-y="669.022"></path></clipPath><clipPath id="XMLID_6_" node-id="106"><path d="M 251.54 689.72 L 279.00 689.72 C 279.00 689.72 277.17 707.01 295.11 708.84 C 295.11 708.84 317.08 710.67 314.51 725.20 L 251.54 725.20 L 251.54 689.72 Z" fill="#000000" fill-rule="nonzero" node-id="223" stroke="none" target-height="35.47705" target-width="65.54201" target-x="251.536" target-y="689.72"></path></clipPath><clipPath id="SVGID_4_" node-id="161"><path d="M 731.62 315.66 C 731.62 348.79 704.75 375.66 671.62 375.66 C 638.48 375.66 611.62 348.79 611.62 315.66 C 611.62 282.52 638.48 255.66 671.62 255.66 C 704.75 255.66 731.62 282.52 731.62 315.66 Z" fill="#000000" fill-rule="nonzero" node-id="227" stroke="none" target-height="120.000015" target-width="120" target-x="611.615" target-y="255.657"></path></clipPath></defs><g node-id="625"><g node-id="632"><path d="M 206.59 732.02 C 206.59 732.02 -28.06 642.97 82.90 338.40 C 82.90 338.40 149.81 174.97 326.59 199.98 C 326.59 199.98 391.06 210.21 454.60 248.86 C 518.14 287.51 633.34 204.52 686.01 185.20 C 738.69 165.87 889.08 177.07 908.08 310.30 C 926.04 436.23 768.62 705.87 686.01 732.02 L 206.59 732.02 Z" fill="#ffebe5" fill-rule="nonzero" group-id="1,8" node-id="237" stroke="none" target-height="566.147" target-width="954.099" target-x="-28.058" target-y="165.871"></path></g><g node-id="633"><g clip-path="url(#XMLID_2_)" group-id="1,9" node-id="240"><path d="M 131.71 348.45 C 130.13 348.45 128.54 348.40 126.95 348.30 C 89.80 345.99 53.54 316.81 29.67 292.74 C 3.87 266.72 -13.42 240.90 -13.60 240.64 L -11.93 239.53 C -11.76 239.79 5.45 265.47 31.12 291.35 C 54.74 315.17 90.56 344.03 127.07 346.31 C 151.38 347.81 173.30 337.46 192.25 315.50 C 233.88 267.28 292.49 229.71 357.29 209.71 C 420.18 190.29 482.74 188.92 533.43 205.85 L 532.79 207.75 C 426.20 172.15 277.28 220.06 193.76 316.81 C 175.62 337.82 154.77 348.45 131.71 348.45 Z" fill="#ffffff" fill-rule="nonzero" group-id="1,9" node-id="242" stroke="none" target-height="176.301" target-width="547.02203" target-x="-13.596" target-y="172.15"></path></g></g><g node-id="634"><g clip-path="url(#XMLID_2_)" group-id="1,10" node-id="245"><path d="M -115.43 542.66 L -117.00 541.43 C -116.64 540.96 -79.26 493.70 0.85 463.91 C 47.87 446.43 100.20 438.26 156.41 439.68 C 226.63 441.43 303.12 458.19 383.75 489.48 C 464.72 520.91 518.17 523.01 542.59 495.72 C 595.42 436.70 501.59 256.87 466.27 189.17 C 455.16 167.86 453.03 163.56 453.58 162.18 C 453.71 161.86 453.96 161.62 454.28 161.51 L 454.92 163.41 C 455.33 163.27 455.49 162.89 455.48 162.72 C 455.53 164.25 461.05 174.84 468.05 188.24 C 503.54 256.28 597.83 437.00 544.08 497.05 C 532.37 510.14 514.25 516.69 489.92 516.69 C 462.26 516.69 426.56 508.24 383.02 491.35 C 200.95 420.68 75.08 438.44 1.55 465.79 C -78.04 495.38 -115.06 542.19 -115.43 542.66 Z" fill="#ffffff" fill-rule="nonzero" group-id="1,10" node-id="247" stroke="none" target-height="381.144" target-width="714.835" target-x="-117.005" target-y="161.512"></path></g></g><g node-id="635"><g clip-path="url(#XMLID_2_)" group-id="1,11" node-id="250"><path d="M 961.03 732.54 C 959.54 730.09 926.37 708.70 861.80 689.43 C 806.29 672.87 716.42 655.08 603.49 664.35 C 541.15 669.47 502.36 677.78 474.03 683.84 C 409.06 697.75 409.06 697.75 334.48 609.31 C 330.22 604.25 325.71 598.90 320.93 593.25 C 297.45 565.49 267.61 551.03 232.25 550.28 C 167.09 548.86 93.68 594.41 43.54 632.84 C -10.85 674.54 -50.29 717.11 -50.68 717.54 L -52.15 716.18 C -51.76 715.75 -12.20 673.06 42.33 631.26 C 74.37 606.69 105.24 587.23 134.08 573.41 C 170.21 556.11 203.26 547.64 232.30 548.27 C 268.25 549.04 298.59 563.74 322.46 591.96 C 327.24 597.61 331.75 602.96 336.01 608.02 C 409.82 695.54 409.82 695.54 473.61 681.88 C 501.99 675.81 540.86 667.49 603.32 662.36 C 716.57 653.06 806.70 670.91 862.37 687.52 C 924.24 705.98 960.30 727.50 962.74 731.50 L 961.03 732.54 Z" fill="#ffffff" fill-rule="nonzero" group-id="1,11" node-id="252" stroke="none" target-height="184.896" target-width="1014.894" target-x="-52.152" target-y="547.643"></path></g></g><g node-id="636"><g clip-path="url(#XMLID_2_)" group-id="1,12" node-id="255"><path d="M 691.64 341.90 C 685.28 341.90 679.05 340.76 672.95 338.49 C 644.40 327.84 619.21 293.08 598.07 235.19 C 582.37 192.20 574.92 151.80 574.84 151.39 L 576.81 151.03 C 576.88 151.44 584.32 191.70 599.96 234.53 C 614.35 273.93 638.81 323.62 673.65 336.61 C 693.85 344.15 715.68 338.66 738.54 320.31 C 787.28 281.19 813.59 236.21 832.80 203.36 C 847.99 177.39 858.96 158.62 873.14 157.73 C 883.48 157.08 894.94 165.72 910.29 185.72 L 908.70 186.94 C 894.00 167.78 882.76 159.16 873.27 159.73 C 860.15 160.55 849.40 178.93 834.52 204.37 C 815.24 237.35 788.82 282.52 739.79 321.87 C 723.19 335.20 707.06 341.90 691.64 341.90 Z" fill="#ffffff" fill-rule="nonzero" group-id="1,12" node-id="257" stroke="none" target-height="193.11398" target-width="335.443" target-x="574.844" target-y="151.035"></path></g></g><g clip-path="url(#XMLID_2_)" group-id="1,13" node-id="260"><path d="M 1092.38 742.24 C 1069.84 742.24 1002.20 708.56 930.47 661.54 C 843.03 604.21 768.84 540.11 726.91 485.69 C 707.24 460.16 702.01 437.75 711.36 419.06 C 725.36 391.08 771.00 371.74 847.00 361.58 C 903.42 354.04 956.45 354.66 956.98 354.67 L 956.95 356.67 C 956.42 356.66 903.52 356.04 847.24 363.56 C 773.01 373.49 726.64 392.99 713.15 419.96 C 704.17 437.90 709.33 459.60 728.49 484.47 C 825.51 610.40 1052.50 741.86 1093.14 740.23 C 1095.75 740.13 1097.46 739.47 1098.23 738.29 L 1099.91 739.38 C 1098.76 741.14 1096.52 742.10 1093.22 742.23 C 1092.95 742.24 1092.67 742.24 1092.38 742.24 Z" fill="#ffffff" fill-rule="nonzero" group-id="1,13" node-id="262" stroke="none" target-height="388.208" target-width="397.89398" target-x="702.012" target-y="354.036"></path></g></g><path d="M 711.78 649.41 C 711.78 649.41 934.35 557.95 945.22 583.98 C 956.88 611.92 916.42 644.72 864.12 663.36 C 864.12 663.36 955.60 633.45 926.27 689.72 C 912.12 716.86 871.77 729.40 855.78 732.02 L 583.70 732.02 L 666.31 660.02 L 711.78 649.41 Z" fill="#eaeaff" fill-rule="nonzero" node-id="266" stroke="none" target-height="174.06305" target-width="373.17596" target-x="583.7" target-y="557.954"></path><path d="M 285.85 453.14 C 285.85 453.14 359.95 423.28 283.14 279.22 C 283.14 279.22 184.24 336.72 285.85 453.14 Z" fill="#95ae3a" fill-rule="nonzero" group-id="2" node-id="269" stroke="none" target-height="173.923" target-width="175.71901" target-x="184.235" target-y="279.222"></path><path d="M 278.42 417.29 C 278.21 417.29 278.02 417.16 277.95 416.95 C 263.30 373.01 277.28 310.81 277.42 310.18 C 277.49 309.91 277.75 309.74 278.02 309.81 C 278.29 309.87 278.46 310.14 278.40 310.40 C 278.25 311.03 264.33 372.96 278.90 416.63 C 278.98 416.89 278.84 417.18 278.58 417.26 C 278.53 417.28 278.47 417.29 278.42 417.29 Z" fill="#232323" fill-rule="nonzero" group-id="2" node-id="271" stroke="none" target-height="107.547" target-width="15.687988" target-x="263.295" target-y="309.743"></path><path d="M 278.22 346.16 C 276.47 346.16 274.62 346.00 272.68 345.62 C 272.41 345.57 272.23 345.31 272.29 345.04 C 272.34 344.77 272.60 344.59 272.87 344.64 C 288.68 347.69 298.11 336.41 298.20 336.30 C 298.38 336.08 298.69 336.05 298.91 336.23 C 299.12 336.40 299.15 336.72 298.98 336.93 C 298.89 337.04 291.26 346.16 278.22 346.16 Z" fill="#232323" fill-rule="nonzero" group-id="2" node-id="273" stroke="none" target-height="11.634003" target-width="26.920013" target-x="272.233" target-y="336.053"></path><path d="M 271.89 359.88 C 271.82 359.88 271.75 359.86 271.69 359.83 C 271.48 359.75 251.06 350.79 254.47 334.95 C 254.53 334.68 254.79 334.51 255.06 334.56 C 255.34 334.62 255.51 334.89 255.45 335.16 C 252.20 350.20 271.88 358.83 272.08 358.92 C 272.34 359.02 272.45 359.32 272.35 359.57 C 272.26 359.76 272.08 359.88 271.89 359.88 Z" fill="#232323" fill-rule="nonzero" group-id="2" node-id="275" stroke="none" target-height="25.367004" target-width="21.398987" target-x="251.056" target-y="334.508"></path><path d="M 271.92 378.37 C 271.65 378.37 271.42 378.15 271.42 377.88 C 271.42 377.60 271.65 377.38 271.92 377.37 C 272.13 377.37 292.42 377.16 307.06 363.30 C 307.26 363.12 307.58 363.12 307.77 363.32 C 307.96 363.52 307.95 363.84 307.75 364.03 C 292.81 378.16 272.13 378.37 271.92 378.37 C 271.92 378.37 271.92 378.37 271.92 378.37 Z" fill="#232323" fill-rule="nonzero" group-id="2" node-id="277" stroke="none" target-height="15.259003" target-width="36.537994" target-x="271.423" target-y="363.115"></path><path d="M 306.87 472.76 C 304.79 441.20 287.27 347.89 153.89 328.87 C 153.89 328.87 143.20 497.56 296.85 484.34 C 302.79 483.83 307.26 478.71 306.87 472.76 Z" fill="#adcd55" fill-rule="nonzero" group-id="2" node-id="279" stroke="none" target-height="168.69302" target-width="164.063" target-x="143.197" target-y="328.869"></path><path d="M 295.60 471.89 C 295.47 471.89 295.34 471.84 295.24 471.74 C 294.12 470.59 182.75 356.30 163.81 339.30 C 163.60 339.11 163.59 338.80 163.77 338.59 C 163.96 338.39 164.27 338.37 164.48 338.56 C 183.44 355.58 294.83 469.89 295.96 471.04 C 296.15 471.24 296.15 471.56 295.95 471.75 C 295.85 471.84 295.73 471.89 295.60 471.89 Z" fill="#607035" fill-rule="nonzero" group-id="2" node-id="281" stroke="none" target-height="133.51901" target-width="132.56299" target-x="163.587" target-y="338.37"></path><path d="M 217.21 391.98 C 217.19 391.98 217.16 391.98 217.14 391.98 C 216.87 391.94 216.68 391.69 216.72 391.41 C 218.27 380.50 206.25 351.02 206.13 350.72 C 206.02 350.47 206.15 350.17 206.40 350.07 C 206.66 349.96 206.95 350.09 207.05 350.34 C 207.55 351.56 219.30 380.37 217.71 391.55 C 217.67 391.80 217.46 391.98 217.21 391.98 Z" fill="#607035" fill-rule="nonzero" group-id="2" node-id="283" stroke="none" target-height="42.017" target-width="13.274002" target-x="206.024" target-y="349.965"></path><path d="M 210.58 403.45 C 201.89 403.45 189.30 401.03 172.49 392.05 C 172.25 391.92 172.16 391.62 172.28 391.37 C 172.41 391.13 172.72 391.04 172.96 391.17 C 208.13 409.96 224.90 399.40 225.06 399.29 C 225.29 399.14 225.60 399.20 225.75 399.43 C 225.91 399.66 225.84 399.97 225.61 400.13 C 225.25 400.37 220.39 403.45 210.58 403.45 Z" fill="#607035" fill-rule="nonzero" group-id="2" node-id="285" stroke="none" target-height="18.923004" target-width="53.75" target-x="172.155" target-y="391.037"></path><path d="M 247.58 422.81 C 247.50 422.81 247.43 422.80 247.36 422.76 C 247.11 422.63 247.01 422.33 247.13 422.09 C 247.23 421.90 256.49 403.16 248.85 383.38 C 248.75 383.12 248.88 382.83 249.14 382.73 C 249.39 382.63 249.69 382.76 249.78 383.02 C 257.59 403.23 248.12 422.35 248.03 422.54 C 247.94 422.71 247.76 422.81 247.58 422.81 Z" fill="#607035" fill-rule="nonzero" group-id="2" node-id="287" stroke="none" target-height="40.17798" target-width="10.576004" target-x="247.011" target-y="382.635"></path><path d="M 237.90 441.95 C 226.40 441.95 212.06 439.66 197.40 431.50 C 197.16 431.36 197.07 431.06 197.21 430.82 C 197.34 430.58 197.64 430.49 197.89 430.62 C 230.87 448.98 262.15 437.32 262.46 437.20 C 262.72 437.10 263.01 437.23 263.11 437.49 C 263.21 437.75 263.08 438.04 262.82 438.13 C 262.64 438.20 252.59 441.95 237.90 441.95 Z" fill="#607035" fill-rule="nonzero" group-id="2" node-id="289" stroke="none" target-height="18.48999" target-width="66.13602" target-x="197.073" target-y="430.489"></path><path d="M 680.03 450.30 C 679.83 450.30 679.62 450.26 679.43 450.17 C 678.67 449.84 678.32 448.96 678.65 448.20 C 678.76 447.96 689.28 424.22 715.05 399.51 C 738.80 376.74 780.77 348.40 845.80 342.75 C 846.63 342.67 847.36 343.28 847.43 344.11 C 847.50 344.93 846.89 345.66 846.06 345.73 C 781.97 351.31 740.62 379.18 717.23 401.58 C 691.85 425.88 681.50 449.17 681.40 449.40 C 681.16 449.96 680.61 450.30 680.03 450.30 Z" fill="#5a6c1c" fill-rule="nonzero" group-id="3" node-id="294" stroke="none" target-height="107.630005" target-width="169.17499" target-x="678.323" target-y="342.669"></path><path d="M 732.63 355.67 C 732.63 355.67 716.15 370.78 726.28 391.48 C 726.28 391.48 747.03 373.04 732.63 355.67 Z" fill="#adcd55" fill-rule="nonzero" group-id="3" node-id="296" stroke="none" target-height="35.815002" target-width="30.870972" target-x="716.155" target-y="355.667"></path><path d="M 760.67 408.99 C 760.67 408.99 731.13 429.24 717.67 401.20 C 717.67 401.20 740.58 384.96 760.67 408.99 Z" fill="#adcd55" fill-rule="nonzero" group-id="3" node-id="298" stroke="none" target-height="44.28" target-width="42.998047" target-x="717.67" target-y="384.959"></path><path d="M 756.50 345.83 C 756.50 345.83 745.11 357.04 753.46 372.49 C 753.46 372.49 769.76 366.25 756.50 345.83 Z" fill="#adcd55" fill-rule="nonzero" group-id="3" node-id="300" stroke="none" target-height="26.658997" target-width="24.651978" target-x="745.111" target-y="345.826"></path><path d="M 799.32 391.48 C 799.32 391.48 765.77 411.85 748.82 375.26 C 748.82 375.26 786.06 362.44 799.32 391.48 Z" fill="#adcd55" fill-rule="nonzero" group-id="3" node-id="302" stroke="none" target-height="49.411987" target-width="50.502014" target-x="748.819" target-y="362.441"></path><path d="M 784.92 332.92 C 784.92 332.92 774.24 340.47 781.01 359.15 C 781.01 359.15 797.43 348.38 784.92 332.92 Z" fill="#adcd55" fill-rule="nonzero" group-id="3" node-id="304" stroke="none" target-height="26.238007" target-width="23.190002" target-x="774.236" target-y="332.917"></path><path d="M 823.57 367.47 C 823.57 367.47 802.73 376.81 786.82 358.12 C 786.82 358.12 805.00 345.49 823.57 367.47 Z" fill="#adcd55" fill-rule="nonzero" group-id="3" node-id="306" stroke="none" target-height="31.322998" target-width="36.757996" target-x="786.815" target-y="345.491"></path><path d="M 816.75 327.17 C 816.75 327.17 805.42 340.34 810.24 349.97 C 810.24 349.97 822.44 344.84 816.75 327.17 Z" fill="#adcd55" fill-rule="nonzero" group-id="3" node-id="308" stroke="none" target-height="22.800995" target-width="17.020996" target-x="805.416" target-y="327.167"></path><path d="M 834.94 344.24 C 834.94 344.24 842.90 329.66 869.05 330.00 C 869.05 330.00 886.58 331.81 891.08 341.68 C 891.08 341.68 889.74 340.67 887.50 339.79 C 884.21 338.52 880.51 339.17 877.74 341.35 C 871.69 346.11 856.84 354.39 834.94 344.24 Z" fill="#adcd55" fill-rule="nonzero" group-id="3" node-id="310" stroke="none" target-height="24.734985" target-width="56.136963" target-x="834.942" target-y="329.657"></path><path d="M 695.62 605.81 L 257.62 605.81 C 250.33 605.81 244.36 599.85 244.36 592.55 L 244.36 350.86 C 244.36 343.56 250.33 337.59 257.62 337.59 L 695.62 337.59 C 702.91 337.59 708.88 343.56 708.88 350.86 L 708.88 592.55 C 708.88 599.84 702.91 605.81 695.62 605.81 Z" fill="#ffffff" fill-rule="nonzero" id="XMLID_102_" node-id="37" stroke="none" target-height="268.22" target-width="464.521" target-x="244.362" target-y="337.593"></path><path d="M 705.61 619.19 L 267.62 619.19 C 260.32 619.19 254.35 613.22 254.35 605.92 L 254.35 364.23 C 254.35 356.94 260.32 350.97 267.62 350.97 L 705.61 350.97 C 712.90 350.97 718.87 356.94 718.87 364.23 L 718.87 605.92 C 718.87 613.22 712.90 619.19 705.61 619.19 Z" fill="none" id="XMLID_10_" node-id="38" stroke="#232323" stroke-linecap="butt" stroke-width="2" target-height="268.22" target-width="464.521" target-x="254.352" target-y="350.967"></path><path d="M 439.81 438.34 L 685.26 438.34 L 685.26 477.37 L 439.81 477.37 Z" fill="#f1f1f1" fill-rule="nonzero" node-id="315" stroke="none" target-height="39.02298" target-width="245.444" target-x="439.814" target-y="438.342"></path><path d="M 439.81 498.06 L 685.26 498.06 L 685.26 537.08 L 439.81 537.08 Z" fill="#f1f1f1" fill-rule="nonzero" node-id="317" stroke="none" target-height="39.02301" target-width="245.444" target-x="439.814" target-y="498.06"></path><path d="M 671.62 512.23 C 671.62 512.23 711.03 518.29 776.96 434.17 L 961.89 481.91 C 961.89 481.91 914.14 618.19 711.78 663.36 L 671.62 512.23 Z" fill="#ffd840" fill-rule="nonzero" node-id="319" stroke="none" target-height="229.19101" target-width="290.273" target-x="671.615" target-y="434.165"></path><path d="M 519.28 583.98 C 519.28 583.98 609.47 572.86 661.76 477.37 L 840.63 542.85 C 840.63 542.85 854.27 611.51 623.87 716.86 L 519.28 583.98 Z" fill="#ff6666" fill-rule="nonzero" node-id="321" stroke="none" target-height="239.495" target-width="334.989" target-x="519.279" target-y="477.365"></path><path d="M 293.43 732.02 C 293.43 732.02 405.59 696.40 510.18 553.91 L 700.42 633.96 C 700.42 633.96 662.52 719.89 595.83 732.02 L 293.43 732.02 Z" fill="#5a78ec" fill-rule="nonzero" node-id="323" stroke="none" target-height="178.10498" target-width="406.99002" target-x="293.426" target-y="553.913"></path><path d="M 931.95 738.84 L 57.72 738.84 C 53.97 738.84 50.90 735.77 50.90 732.02 L 50.90 732.02 C 50.90 728.27 53.97 725.20 57.72 725.20 L 931.95 725.20 C 935.71 725.20 938.77 728.27 938.77 732.02 L 938.77 732.02 C 938.77 735.77 935.70 738.84 931.95 738.84 Z" fill="#26205c" fill-rule="nonzero" node-id="325" stroke="none" target-height="13.641968" target-width="887.87396" target-x="50.9" target-y="725.197"></path><path d="M 321.69 387.02 C 321.69 393.98 316.05 399.62 309.10 399.62 C 302.15 399.62 296.51 393.98 296.51 387.02 C 296.51 380.07 302.15 374.43 309.10 374.43 C 316.05 374.43 321.69 380.07 321.69 387.02 Z" fill="#5a78ec" fill-rule="nonzero" node-id="327" stroke="none" target-height="25.186005" target-width="25.186005" target-x="296.507" target-y="374.431"></path><path d="M 363.50 387.02 C 363.50 393.98 357.86 399.62 350.91 399.62 C 343.95 399.62 338.31 393.98 338.31 387.02 C 338.31 380.07 343.95 374.43 350.91 374.43 C 357.86 374.43 363.50 380.07 363.50 387.02 Z" fill="#5a78ec" fill-rule="nonzero" node-id="329" stroke="none" target-height="25.186005" target-width="25.186005" target-x="338.313" target-y="374.431"></path><path d="M 321.69 436.85 C 321.69 443.81 316.05 449.44 309.10 449.44 C 302.15 449.44 296.51 443.81 296.51 436.85 C 296.51 429.90 302.15 424.26 309.10 424.26 C 316.05 424.26 321.69 429.90 321.69 436.85 Z" fill="#5a78ec" fill-rule="nonzero" node-id="331" stroke="none" target-height="25.186005" target-width="25.186005" target-x="296.507" target-y="424.259"></path><path d="M 363.50 436.85 C 363.50 443.81 357.86 449.44 350.91 449.44 C 343.95 449.44 338.31 443.81 338.31 436.85 C 338.31 429.90 343.95 424.26 350.91 424.26 C 357.86 424.26 363.50 429.90 363.50 436.85 Z" fill="#5a78ec" fill-rule="nonzero" node-id="333" stroke="none" target-height="25.186005" target-width="25.186005" target-x="338.313" target-y="424.259"></path><path d="M 405.31 387.02 C 405.31 393.98 399.67 399.62 392.71 399.62 C 385.76 399.62 380.12 393.98 380.12 387.02 C 380.12 380.07 385.76 374.43 392.71 374.43 C 399.67 374.43 405.31 380.07 405.31 387.02 Z" fill="#5a78ec" fill-rule="nonzero" node-id="335" stroke="none" target-height="25.186005" target-width="25.186005" target-x="380.119" target-y="374.431"></path><path d="M 405.31 436.85 C 405.31 443.81 399.67 449.44 392.71 449.44 C 385.76 449.44 380.12 443.81 380.12 436.85 C 380.12 429.90 385.76 424.26 392.71 424.26 C 399.67 424.26 405.31 429.90 405.31 436.85 Z" fill="#5a78ec" fill-rule="nonzero" node-id="337" stroke="none" target-height="25.186005" target-width="25.186005" target-x="380.119" target-y="424.259"></path><path d="M 385.86 465.88 L 352.47 499.27 C 349.13 502.61 351.50 508.32 356.22 508.32 L 365.11 508.32 C 368.03 508.32 370.41 510.70 370.41 513.63 L 370.41 577.25 C 370.41 580.18 372.78 582.56 375.71 582.56 L 389.61 582.56 L 403.50 582.56 C 406.43 582.56 408.81 580.18 408.81 577.25 L 408.81 513.63 C 408.81 510.70 411.18 508.32 414.11 508.32 L 423.00 508.32 C 427.72 508.32 430.09 502.61 426.75 499.27 L 393.36 465.88 C 391.29 463.81 387.93 463.81 385.86 465.88 Z" fill="#ff6666" fill-rule="nonzero" node-id="339" stroke="none" target-height="118.74802" target-width="80.959015" target-x="349.129" target-y="463.809"></path><path d="M 124.40 511.85 C 124.40 522.52 115.75 531.17 105.07 531.17 C 94.40 531.17 85.75 522.52 85.75 511.85 C 85.75 501.18 94.40 492.52 105.07 492.52 C 115.75 492.52 124.40 501.18 124.40 511.85 Z" fill="#ffb7b7" fill-rule="nonzero" group-id="4" node-id="343" stroke="none" target-height="38.650024" target-width="38.65" target-x="85.748" target-y="492.524"></path><path d="M 37.02 602.84 L 37.02 602.84 C 35.01 599.87 30.93 599.08 27.95 601.10 L 23.80 603.91 L 18.33 602.79 C 17.51 602.62 16.70 603.15 16.53 603.97 C 16.36 604.80 16.89 605.61 17.71 605.78 L 20.27 606.30 L 15.12 609.79 C 12.15 611.81 11.36 615.89 13.38 618.86 L 13.38 618.86 C 15.39 621.84 19.47 622.62 22.45 620.61 L 35.28 611.91 C 38.25 609.89 39.04 605.81 37.02 602.84 Z" fill="#ffb7b7" fill-rule="nonzero" group-id="4" node-id="345" stroke="none" target-height="23.536987" target-width="27.677002" target-x="11.362" target-y="599.083"></path><path d="M 162.58 505.36 C 162.58 505.36 197.76 490.96 298.11 531.32 C 398.47 571.69 389.95 535.40 396.24 524.29 C 402.54 513.18 386.62 481.33 357.36 478.00 C 328.11 474.67 338.85 459.12 348.11 448.75 C 357.36 438.38 331.31 416.82 290.83 444.45 C 290.83 444.45 179.70 487.68 161.10 503.09 L 162.58 505.36 Z" fill="#4ed0d7" fill-rule="nonzero" group-id="4,14,31" node-id="351" stroke="none" target-height="154.86496" target-width="241.435" target-x="161.103" target-y="416.821"></path><g clip-path="url(#XMLID_3_)" group-id="4,14,32" node-id="354"><path d="M 304.27 520.04 C 287.75 520.04 268.12 512.58 261.06 503.54 C 250.25 489.68 228.05 488.78 217.51 494.25 C 206.70 499.87 201.65 501.42 195.20 494.08 C 190.71 488.98 167.02 503.52 158.27 509.55 L 157.44 508.34 C 160.77 506.05 190.15 486.11 196.30 493.11 C 201.85 499.43 205.66 498.75 216.84 492.95 C 227.81 487.25 250.95 488.19 262.22 502.64 C 269.14 511.51 288.78 518.80 305.03 518.57 C 312.79 518.46 323.28 516.62 329.24 508.51 C 340.08 493.75 351.42 486.27 362.96 486.27 C 363.00 486.27 363.05 486.27 363.10 486.27 C 374.94 486.33 386.75 494.43 398.20 510.37 L 397.01 511.22 C 385.85 495.69 374.44 487.79 363.09 487.73 C 363.05 487.73 363.00 487.73 362.96 487.73 C 351.92 487.73 340.97 495.01 330.42 509.38 C 324.11 517.98 313.14 519.92 305.05 520.04 C 304.79 520.04 304.53 520.04 304.27 520.04 Z" fill="#ffffff" fill-rule="nonzero" group-id="4,14,32" node-id="356" stroke="none" target-height="33.931976" target-width="240.764" target-x="157.439" target-y="486.113"></path></g><path d="M 160.39 501.14 C 160.39 501.14 161.81 502.81 166.59 495.03 C 166.59 495.03 187.21 442.82 220.81 425.05 C 220.81 425.05 227.20 421.99 235.81 405.33 C 244.42 388.67 279.14 351.73 292.75 391.17 C 306.35 430.60 300.52 438.66 288.58 445.88 C 288.58 445.88 175.22 492.54 164.41 503.09 L 160.39 501.14 Z" fill="#11b7ca" fill-rule="nonzero" group-id="4,15,33" node-id="364" stroke="none" target-height="151.36002" target-width="145.966" target-x="160.388" target-y="351.728"></path><g clip-path="url(#XMLID_4_)" group-id="4,15,34" node-id="367"><path d="M 147.20 516.86 L 146.68 516.35 C 147.13 515.89 192.06 470.40 223.76 460.80 C 239.64 455.99 248.92 452.06 252.45 445.11 C 255.98 438.14 253.56 427.85 248.52 413.50 C 246.10 406.64 246.40 395.59 252.51 386.38 C 256.19 380.83 263.35 374.05 276.61 373.23 L 276.66 373.96 C 263.70 374.76 256.70 381.38 253.12 386.78 C 247.15 395.79 246.85 406.57 249.21 413.26 C 254.32 427.79 256.75 438.24 253.10 445.44 C 249.46 452.63 240.05 456.63 223.97 461.50 C 192.45 471.05 147.65 516.40 147.20 516.86 Z" fill="#ffffff" fill-rule="nonzero" group-id="4,15,34" node-id="369" stroke="none" target-height="143.62701" target-width="129.982" target-x="146.677" target-y="373.232"></path></g><path d="M 143.41 515.70 C 143.82 518.66 145.87 520.55 152.38 516.27 L 167.88 502.12 L 164.71 498.46 L 148.42 506.60 C 145.02 508.30 142.88 511.94 143.41 515.70 Z" fill="#11b7ca" fill-rule="nonzero" group-id="4" node-id="373" stroke="none" target-height="22.09201" target-width="25.003006" target-x="142.877" target-y="498.457"></path><path d="M 178.02 519.67 L 178.02 519.67 C 175.00 521.85 170.74 521.16 168.56 518.14 L 160.53 507.02 C 158.35 504.00 159.04 499.75 162.06 497.56 L 162.06 497.56 C 165.08 495.38 169.34 496.07 171.52 499.09 L 179.54 510.21 C 181.72 513.23 181.04 517.49 178.02 519.67 Z" fill="#ffb7b7" fill-rule="nonzero" group-id="4" node-id="375" stroke="none" target-height="26.464996" target-width="23.373001" target-x="158.352" target-y="495.384"></path><path d="M 196.12 531.45 L 181.70 509.68 C 180.98 508.59 179.50 508.29 178.40 509.01 L 166.21 517.09 C 165.11 517.82 164.81 519.31 165.53 520.41 L 171.75 529.79 L 135.39 534.59 C 134.91 534.65 134.45 534.75 134.00 534.87 C 133.73 534.92 133.45 534.98 133.18 535.06 L 131.07 535.65 L 126.83 534.02 C 125.27 533.42 123.54 533.47 122.01 534.14 L 105.95 541.25 C 104.03 542.10 102.66 543.85 102.29 545.92 L 101.78 548.83 L 100.87 549.35 C 100.12 549.78 99.44 550.29 98.84 550.87 C 98.65 550.97 98.47 551.07 98.29 551.19 L 27.30 598.26 C 26.17 599.00 25.86 600.54 26.61 601.67 L 34.77 613.99 C 35.54 615.15 37.12 615.47 38.27 614.70 L 100.24 573.62 L 111.66 607.54 L 172.44 583.98 L 152.32 552.20 L 173.49 549.79 C 175.18 549.59 190.23 546.77 191.53 545.85 C 192.17 545.61 192.80 545.29 193.39 544.89 C 197.84 541.95 199.07 535.89 196.12 531.45 Z" fill="#a9d4ca" fill-rule="nonzero" group-id="4,16,35" node-id="381" stroke="none" target-height="107.185" target-width="173.214" target-x="25.858" target-y="508.287"></path><g clip-path="url(#SVGID_1_)" group-id="4,16,36" node-id="384"><path d="M 30.75 615.57 L 101.78 569.52 L 114.59 611.44 L 107.09 614.01 Z" fill="#94beb3" fill-rule="nonzero" group-id="4,16,36" node-id="386" stroke="none" target-height="46.049988" target-width="83.845" target-x="30.748" target-y="569.519"></path></g><g clip-path="url(#SVGID_1_)" group-id="4,16,37" node-id="389"><path d="M 162.32 555.91 C 162.32 555.91 144.74 539.68 138.76 538.95 C 138.76 538.95 155.97 554.57 160.36 561.40 L 162.32 555.91 Z" fill="#94beb3" fill-rule="nonzero" group-id="4,16,37" node-id="391" stroke="none" target-height="22.458008" target-width="23.556" target-x="138.76" target-y="538.945"></path></g><path d="M 146.74 659.22 L 134.04 671.68 L 143.34 687.97 L 168.60 660.33 L 149.01 656.66 Z" fill="#ffb7b7" fill-rule="nonzero" group-id="4" node-id="395" stroke="none" target-height="31.307007" target-width="34.561005" target-x="134.04" target-y="656.664"></path><path d="M 249.29 676.90 L 254.42 689.72 L 275.34 689.72 L 264.67 663.36 Z" fill="#ffb7b7" fill-rule="nonzero" group-id="4" node-id="397" stroke="none" target-height="26.362976" target-width="26.041992" target-x="249.294" target-y="663.357"></path><path d="M 279.00 661.54 C 279.00 661.54 275.46 626.82 212.01 609.74 L 172.45 583.98 L 144.97 594.63 L 172.45 642.57 C 172.45 642.57 204.28 646.58 218.95 654.28 C 239.34 664.99 246.04 683.94 246.04 683.94 L 279.00 661.54 Z" fill="#7e9a84" fill-rule="nonzero" group-id="4,17,38" node-id="403" stroke="none" target-height="99.961" target-width="134.02798" target-x="144.97" target-y="583.982"></path><g clip-path="url(#SVGID_2_)" group-id="4,17,39" node-id="406"><path d="M 195.64 639.03 C 195.64 639.03 241.53 634.88 260.08 680.04 L 242.50 697.11 L 188.80 651.23 L 195.64 639.03 Z" fill="#65816c" fill-rule="nonzero" group-id="4,17,39" node-id="408" stroke="none" target-height="62.231995" target-width="71.27899" target-x="188.801" target-y="634.878"></path></g><path d="M 138.39 657.58 L 182.70 671.13 C 182.70 671.13 237.96 621.33 217.85 598.63 C 217.85 598.63 205.40 588.38 144.97 594.63 L 111.66 607.54 C 111.66 607.54 107.32 627.19 121.18 637.44 C 121.18 637.44 133.26 645.45 146.44 642.52 C 160.75 639.34 150.33 649.04 138.39 657.58 Z" fill="#8ea594" fill-rule="nonzero" group-id="4,18,40" node-id="416" stroke="none" target-height="82.75098" target-width="130.634" target-x="107.323" target-y="588.377"></path><g clip-path="url(#SVGID_3_)" group-id="4,18,41" node-id="419"><path d="M 164.39 624.14 C 164.39 624.14 162.82 640.61 149.94 648.24 C 144.40 651.52 110.56 633.87 116.91 636.46 C 146.20 648.42 164.39 624.14 164.39 624.14 Z" fill="#65816c" fill-rule="nonzero" group-id="4,18,41" node-id="421" stroke="none" target-height="27.380981" target-width="53.835007" target-x="110.556" target-y="624.137"></path></g><path d="M 135.83 669.02 L 118.85 687.08 L 132.35 725.20 L 166.64 725.20 C 168.51 725.05 168.59 710.23 159.00 710.93 C 148.97 711.66 145.88 706.10 144.97 699.32 C 144.97 699.32 143.17 688.49 151.94 680.39 L 135.83 669.02 Z" fill="#26205c" fill-rule="nonzero" group-id="4,19,42" node-id="429" stroke="none" target-height="56.17505" target-width="49.739998" target-x="118.852" target-y="669.022"></path><g clip-path="url(#XMLID_5_)" group-id="4,19,43" node-id="432"><path d="M 110.05 659.64 L 133.64 722.99 L 174.04 722.99 L 173.92 721.04 L 135.11 721.04 L 112.16 658.55 Z" fill="#ffffff" fill-rule="nonzero" group-id="4,19,43" node-id="434" stroke="none" target-height="64.44299" target-width="63.989" target-x="110.054" target-y="658.546"></path></g><path d="M 251.54 689.72 L 279.00 689.72 C 279.00 689.72 277.17 707.01 295.11 708.84 C 295.11 708.84 317.08 710.67 314.51 725.20 L 251.54 725.20 L 251.54 689.72 Z" fill="#26205c" fill-rule="nonzero" group-id="4,20,44" node-id="442" stroke="none" target-height="35.47705" target-width="65.54201" target-x="251.536" target-y="689.72"></path><g clip-path="url(#XMLID_6_)" group-id="4,20,45" node-id="445"><path d="M 233.96 720.21 L 331.72 720.21 L 331.72 722.14 L 233.96 722.14 Z" fill="#ffffff" fill-rule="nonzero" group-id="4,20,45" node-id="447" stroke="none" target-height="1.9320068" target-width="97.76399" target-x="233.96" target-y="720.205"></path></g><path d="M 122.48 503.45 C 122.48 503.45 118.05 494.83 106.78 498.91 C 106.78 498.91 98.12 504.16 100.56 509.16 C 100.56 509.16 88.11 507.58 93.11 516.12 L 89.61 523.44 C 89.61 523.44 77.57 518.07 85.75 500.86 C 93.92 483.65 124.27 491.02 122.48 503.45 Z" fill="#26205c" fill-rule="nonzero" group-id="4" node-id="451" stroke="none" target-height="39.788025" target-width="46.697998" target-x="77.571" target-y="483.654"></path><path d="M 83.39 500.87 C 83.39 505.15 79.92 508.62 75.64 508.62 C 71.36 508.62 67.89 505.15 67.89 500.87 C 67.89 496.58 71.36 493.12 75.64 493.12 C 79.92 493.12 83.39 496.58 83.39 500.87 Z" fill="#26205c" fill-rule="nonzero" group-id="4" node-id="453" stroke="none" target-height="15.5" target-width="15.5" target-x="67.894" target-y="493.115"></path><path d="M 73.58 498.12 C 73.58 506.53 66.77 513.35 58.36 513.35 C 49.95 513.35 43.14 506.53 43.14 498.12 C 43.14 489.72 49.95 482.90 58.36 482.90 C 66.77 482.90 73.58 489.72 73.58 498.12 Z" fill="#26205c" fill-rule="nonzero" group-id="4" node-id="455" stroke="none" target-height="30.44397" target-width="30.444" target-x="43.139" target-y="482.901"></path><path d="M 158.90 656.02 C 158.54 656.02 158.19 655.82 158.01 655.48 C 157.76 655.00 157.94 654.39 158.43 654.13 C 175.64 645.07 201.19 616.12 200.26 610.89 C 198.28 607.74 160.18 609.94 124.51 613.90 C 124.01 613.95 123.54 613.63 123.42 613.14 C 123.31 612.65 123.58 612.15 124.05 611.97 C 133.26 608.53 135.96 601.29 135.99 601.22 C 136.17 600.70 136.75 600.43 137.26 600.62 C 137.78 600.80 138.06 601.37 137.87 601.89 C 137.78 602.16 135.87 607.36 129.75 611.33 C 136.78 610.61 149.58 609.37 162.34 608.48 C 201.39 605.76 201.96 608.99 202.23 610.54 C 203.50 617.75 175.46 647.42 159.36 655.90 C 159.22 655.98 159.06 656.02 158.90 656.02 Z" fill="#ffffff" fill-rule="nonzero" group-id="4" node-id="457" stroke="none" target-height="55.586" target-width="80.19701" target-x="123.308" target-y="600.431"></path><path d="M 105.07 549.47 C 104.70 549.47 104.34 549.25 104.17 548.89 C 103.93 548.39 104.15 547.80 104.64 547.56 L 128.32 536.33 C 128.82 536.10 129.42 536.31 129.66 536.81 C 129.89 537.31 129.68 537.90 129.18 538.14 L 105.50 549.37 C 105.36 549.43 105.22 549.47 105.07 549.47 Z" fill="#26205c" fill-rule="nonzero" group-id="4" node-id="459" stroke="none" target-height="13.367004" target-width="25.959" target-x="103.933" target-y="536.098"></path><path d="M 386.85 436.60 L 324.31 436.60 C 321.54 436.60 313.02 451.22 313.02 448.45 L 313.02 408.05 C 313.02 405.28 315.28 403.01 318.05 403.01 L 386.85 403.01 C 389.62 403.01 391.89 405.28 391.89 408.05 L 391.89 431.56 C 391.89 434.33 389.62 436.60 386.85 436.60 Z" fill="#017380" fill-rule="nonzero" group-id="4" node-id="461" stroke="none" target-height="48.208008" target-width="78.87402" target-x="313.016" target-y="403.012"></path><path d="M 339.51 429.13 C 339.45 429.13 339.40 429.13 339.34 429.12 C 338.23 428.96 337.77 427.33 336.94 424.38 C 336.32 422.16 335.47 419.12 334.03 415.69 C 333.40 414.17 332.41 412.38 331.10 412.44 C 328.23 412.59 325.07 420.95 324.10 424.15 C 324.02 424.42 323.74 424.57 323.48 424.49 C 323.21 424.41 323.06 424.13 323.14 423.87 C 323.52 422.62 326.96 411.65 331.04 411.44 C 332.53 411.32 333.85 412.66 334.95 415.30 C 336.42 418.79 337.28 421.86 337.90 424.11 C 338.45 426.05 339.01 428.06 339.48 428.13 C 340.22 428.19 342.27 424.86 342.95 423.75 C 347.34 416.62 352.90 412.12 356.50 412.77 C 357.69 412.99 359.22 413.88 359.79 416.88 C 360.38 419.98 361.44 421.80 362.83 422.12 C 364.23 422.44 365.74 421.23 366.68 419.98 C 368.00 418.24 370.06 415.90 372.83 415.65 C 374.70 415.49 376.61 416.31 378.53 418.09 C 378.73 418.28 378.74 418.59 378.55 418.80 C 378.37 419.00 378.05 419.01 377.85 418.82 C 376.15 417.24 374.49 416.51 372.92 416.65 C 370.55 416.86 368.68 419.00 367.48 420.59 C 366.01 422.53 364.18 423.46 362.60 423.10 C 360.77 422.67 359.49 420.64 358.81 417.07 C 358.44 415.10 357.60 413.99 356.32 413.75 C 353.23 413.19 347.85 417.71 343.80 424.27 C 341.58 427.88 340.49 429.13 339.51 429.13 Z" fill="#ffffff" fill-rule="nonzero" group-id="4" node-id="463" stroke="none" target-height="17.80899" target-width="55.679016" target-x="323.063" target-y="411.324"></path><path d="M 588.88 542.04 L 476.20 542.04 C 472.31 542.04 469.13 538.86 469.13 534.97 L 469.13 469.38 C 469.13 465.49 472.31 462.31 476.20 462.31 L 588.88 462.31 C 592.77 462.31 595.95 465.49 595.95 469.38 L 595.95 534.97 C 595.95 538.86 592.77 542.04 588.88 542.04 Z" fill="#5a78ec" fill-rule="nonzero" group-id="5" node-id="468" stroke="none" target-height="79.73303" target-width="126.82202" target-x="469.13" target-y="462.31"></path><path d="M 483.28 474.82 L 534.81 474.82 L 534.81 481.64 L 483.28 481.64 Z" fill="#ffffff" fill-rule="nonzero" group-id="5" node-id="470" stroke="none" target-height="6.820984" target-width="51.537018" target-x="483.277" target-y="474.816"></path><path d="M 483.28 492.63 L 551.49 492.63 L 551.49 499.45 L 483.28 499.45 Z" fill="#ffd840" fill-rule="nonzero" group-id="5" node-id="472" stroke="none" target-height="6.820984" target-width="68.21097" target-x="483.277" target-y="492.626"></path><path d="M 483.28 509.68 L 509.05 509.68 L 509.05 528.63 L 483.28 528.63 Z" fill="#ffffff" fill-rule="nonzero" group-id="5" node-id="474" stroke="none" target-height="18.946991" target-width="25.768005" target-x="483.277" target-y="509.679"></path><path d="M 517.38 509.68 L 542.01 509.68 L 542.01 528.63 L 517.38 528.63 Z" fill="#ff6666" fill-rule="nonzero" group-id="5" node-id="476" stroke="none" target-height="18.946991" target-width="24.632019" target-x="517.383" target-y="509.679"></path><path d="M 483.54 465.41 L 483.02 464.56 L 532.54 434.20 L 532.81 434.37 L 580.93 464.56 L 580.40 465.41 L 532.54 435.38 Z" fill="#5a78ec" fill-rule="nonzero" group-id="5" node-id="478" stroke="none" target-height="31.210999" target-width="97.916016" target-x="483.016" target-y="434.201"></path><path d="M 561.34 417.29 L 502.35 417.29 L 491.36 401.70 L 431.74 401.70 L 431.74 400.70 L 491.88 400.70 L 502.86 416.29 L 561.34 416.29 Z" fill="#5a78ec" fill-rule="nonzero" node-id="481" stroke="none" target-height="16.593994" target-width="129.59998" target-x="431.742" target-y="400.696"></path><path d="M 431.74 382.70 L 464.71 382.70 L 464.71 383.70 L 431.74 383.70 Z" fill="#5a78ec" fill-rule="nonzero" node-id="483" stroke="none" target-height="1" target-width="32.967987" target-x="431.742" target-y="382.698"></path><path d="M 431.74 390.98 L 464.71 390.98 L 464.71 391.98 L 431.74 391.98 Z" fill="#5a78ec" fill-rule="nonzero" node-id="485" stroke="none" target-height="1" target-width="32.967987" target-x="431.742" target-y="390.982"></path><path d="M 545.76 363.24 L 448.66 363.24 C 448.66 363.24 439.76 363.24 432.45 369.08 C 426.39 373.93 423.69 383.69 423.69 383.69 L 423.69 289.37 C 423.69 285.40 426.94 282.14 430.91 282.14 L 545.76 282.14 C 549.74 282.14 552.99 285.40 552.99 289.37 L 552.99 356.01 C 552.99 359.98 549.74 363.24 545.76 363.24 Z" fill="#5a78eb" fill-opacity="0.64" fill-rule="nonzero" group-id="6,21" node-id="490" stroke="none" target-height="101.54599" target-width="129.30798" target-x="423.685" target-y="282.144"></path><path d="M 543.07 360.31 L 445.97 360.31 C 445.97 360.31 437.07 360.31 429.76 366.16 C 423.70 371.01 420.99 380.77 420.99 380.77 L 420.99 286.45 C 420.99 282.48 424.25 279.22 428.22 279.22 L 543.07 279.22 C 547.05 279.22 550.30 282.48 550.30 286.45 L 550.30 353.08 C 550.30 357.06 547.05 360.31 543.07 360.31 Z" fill="#ffffff" fill-rule="nonzero" group-id="6" node-id="493" stroke="none" target-height="101.54602" target-width="129.30801" target-x="420.994" target-y="279.222"></path><path d="M 454.60 302.96 C 454.60 309.22 449.53 314.29 443.28 314.29 C 437.02 314.29 431.95 309.22 431.95 302.96 C 431.95 296.71 437.02 291.64 443.28 291.64 C 449.53 291.64 454.60 296.71 454.60 302.96 Z" fill="#5a78eb" fill-rule="nonzero" group-id="6" node-id="495" stroke="none" target-height="22.645996" target-width="22.645996" target-x="431.953" target-y="291.642"></path><path d="M 519.20 302.96 L 520.97 306.55 L 524.92 307.13 L 522.06 309.92 L 522.74 313.86 L 519.20 312.00 L 515.65 313.86 L 516.33 309.92 L 513.47 307.13 L 517.42 306.55 Z" fill="#fdd740" fill-rule="nonzero" group-id="6" node-id="497" stroke="#232323" stroke-linecap="butt" stroke-width="0.5" target-height="10.89801" target-width="11.458984" target-x="513.465" target-y="302.965"></path><path d="M 502.90 302.96 L 504.67 306.55 L 508.63 307.13 L 505.77 309.92 L 506.44 313.86 L 502.90 312.00 L 499.36 313.86 L 500.04 309.92 L 497.17 307.13 L 501.13 306.55 Z" fill="#fdd740" fill-rule="nonzero" group-id="6" node-id="499" stroke="#232323" stroke-linecap="butt" stroke-width="0.5" target-height="10.89801" target-width="11.458984" target-x="497.174" target-y="302.965"></path><path d="M 486.61 302.96 L 488.38 306.55 L 492.34 307.13 L 489.48 309.92 L 490.15 313.86 L 486.61 312.00 L 483.07 313.86 L 483.75 309.92 L 480.88 307.13 L 484.84 306.55 Z" fill="#fdd740" fill-rule="nonzero" group-id="6" node-id="501" stroke="#232323" stroke-linecap="butt" stroke-width="0.5" target-height="10.89801" target-width="11.460022" target-x="480.882" target-y="302.965"></path><path d="M 470.32 302.96 L 472.09 306.55 L 476.05 307.13 L 473.19 309.92 L 473.86 313.86 L 470.32 312.00 L 466.78 313.86 L 467.46 309.92 L 464.59 307.13 L 468.55 306.55 Z" fill="#fdd740" fill-rule="nonzero" group-id="6" node-id="503" stroke="#232323" stroke-linecap="butt" stroke-width="0.5" target-height="10.89801" target-width="11.459991" target-x="464.591" target-y="302.965"></path><path d="M 535.49 302.96 L 537.26 306.55 L 541.22 307.13 L 538.35 309.92 L 539.03 313.86 L 535.49 312.00 L 531.95 313.86 L 532.62 309.92 L 529.76 307.13 L 533.72 306.55 Z" fill="#fdd740" fill-rule="nonzero" group-id="6" node-id="505" stroke="#232323" stroke-linecap="butt" stroke-width="0.5" target-height="10.89801" target-width="11.460022" target-x="529.756" target-y="302.965"></path><path d="M 437.52 326.63 L 439.86 322.69 L 441.52 322.69 L 439.67 326.63 L 442.11 326.63 L 442.11 330.97 L 437.52 330.97 L 437.52 326.63 Z M 443.15 326.63 L 445.48 322.69 L 447.14 322.69 L 445.30 326.63 L 447.74 326.63 L 447.74 330.97 L 443.15 330.97 L 443.15 326.63 Z" fill="#000000" fill-rule="nonzero" group-id="6,22" node-id="509" stroke="none" target-height="8.283997" target-width="10.212982" target-x="437.522" target-y="322.69"></path><path d="M 535.40 346.03 L 533.07 349.97 L 531.41 349.97 L 533.26 346.03 L 530.82 346.03 L 530.82 341.68 L 535.40 341.68 L 535.40 346.03 Z M 529.77 346.03 L 527.44 349.97 L 525.78 349.97 L 527.63 346.03 L 525.19 346.03 L 525.19 341.68 L 529.77 341.68 L 529.77 346.03 Z" fill="#000000" fill-rule="nonzero" group-id="6,23" node-id="514" stroke="none" target-height="8.283997" target-width="10.213989" target-x="525.187" target-y="341.684"></path><path d="M 495.78 332.92 L 454.32 332.92 C 453.47 332.92 452.77 332.22 452.77 331.36 L 452.77 328.62 C 452.77 327.77 453.47 327.07 454.32 327.07 L 495.78 327.07 C 496.64 327.07 497.34 327.77 497.34 328.62 L 497.34 331.36 C 497.34 332.22 496.64 332.92 495.78 332.92 Z" fill="#b7bfdc" fill-rule="nonzero" group-id="6" node-id="517" stroke="#232323" stroke-linecap="butt" stroke-width="0.5" target-height="5.845001" target-width="44.563995" target-x="452.772" target-y="327.072"></path><path d="M 516.97 344.24 L 454.32 344.24 C 453.47 344.24 452.77 343.54 452.77 342.69 L 452.77 339.95 C 452.77 339.10 453.47 338.40 454.32 338.40 L 516.97 338.40 C 517.82 338.40 518.52 339.10 518.52 339.95 L 518.52 342.69 C 518.52 343.54 517.82 344.24 516.97 344.24 Z" fill="#b7bfdc" fill-rule="nonzero" group-id="6" node-id="519" stroke="#232323" stroke-linecap="butt" stroke-width="0.5" target-height="5.845001" target-width="65.74997" target-x="452.772" target-y="338.396"></path><path d="M 464.83 293.10 L 499.16 293.10" fill="#b7bfdc" fill-rule="nonzero" group-id="6,24" node-id="523" stroke="none" target-height="0" target-width="34.33499" target-x="464.827" target-y="293.102"></path><path d="M 499.16 293.35 L 464.83 293.35 C 464.69 293.35 464.58 293.24 464.58 293.10 C 464.58 292.96 464.69 292.85 464.83 292.85 L 499.16 292.85 C 499.30 292.85 499.41 292.96 499.41 293.10 C 499.41 293.24 499.30 293.35 499.16 293.35 Z" fill="#232323" fill-rule="nonzero" group-id="6,24" node-id="525" stroke="none" target-height="0.5" target-width="34.836" target-x="464.576" target-y="292.853"></path><path d="M 464.83 295.66 L 475.05 295.66" fill="#b7bfdc" fill-rule="nonzero" group-id="6,25" node-id="530" stroke="none" target-height="0" target-width="10.22699" target-x="464.827" target-y="295.659"></path><path d="M 475.05 295.91 L 464.83 295.91 C 464.69 295.91 464.58 295.80 464.58 295.66 C 464.58 295.52 464.69 295.41 464.83 295.41 L 475.05 295.41 C 475.19 295.41 475.30 295.52 475.30 295.66 C 475.30 295.80 475.19 295.91 475.05 295.91 Z" fill="#232323" fill-rule="nonzero" group-id="6,25" node-id="532" stroke="none" target-height="0.5" target-width="10.727997" target-x="464.576" target-y="295.409"></path><path d="M 477.25 295.66 L 480.90 295.66 L 482.36 295.66 L 494.78 295.66" fill="#b7bfdc" fill-rule="nonzero" group-id="6,26" node-id="537" stroke="none" target-height="0" target-width="17.53299" target-x="477.246" target-y="295.659"></path><path d="M 494.78 295.91 L 477.25 295.91 C 477.11 295.91 477.00 295.80 477.00 295.66 C 477.00 295.52 477.11 295.41 477.25 295.41 L 494.78 295.41 C 494.92 295.41 495.03 295.52 495.03 295.66 C 495.03 295.80 494.92 295.91 494.78 295.91 Z" fill="#232323" fill-rule="nonzero" group-id="6,26" node-id="539" stroke="none" target-height="0.5" target-width="18.03299" target-x="476.996" target-y="295.409"></path><path d="M 464.83 298.22 L 481.63 298.22" fill="#b7bfdc" fill-rule="nonzero" group-id="6,27" node-id="544" stroke="none" target-height="0" target-width="16.802002" target-x="464.827" target-y="298.216"></path><path d="M 481.63 298.47 L 464.83 298.47 C 464.69 298.47 464.58 298.35 464.58 298.22 C 464.58 298.08 464.69 297.97 464.83 297.97 L 481.63 297.97 C 481.77 297.97 481.88 298.08 481.88 298.22 C 481.88 298.35 481.77 298.47 481.63 298.47 Z" fill="#232323" fill-rule="nonzero" group-id="6,27" node-id="546" stroke="none" target-height="0.5" target-width="17.303009" target-x="464.576" target-y="297.966"></path><path d="M 483.82 298.22 L 510.85 298.22" fill="#b7bfdc" fill-rule="nonzero" group-id="6,28" node-id="551" stroke="none" target-height="0" target-width="27.029999" target-x="483.821" target-y="298.216"></path><path d="M 510.85 298.47 L 483.82 298.47 C 483.68 298.47 483.57 298.35 483.57 298.22 C 483.57 298.08 483.68 297.97 483.82 297.97 L 510.85 297.97 C 510.99 297.97 511.10 298.08 511.10 298.22 C 511.10 298.35 510.99 298.47 510.85 298.47 Z" fill="#232323" fill-rule="nonzero" group-id="6,28" node-id="553" stroke="none" target-height="0.5" target-width="27.529999" target-x="483.571" target-y="297.966"></path><path d="M 731.62 315.66 C 731.62 348.79 704.75 375.66 671.62 375.66 C 638.48 375.66 611.62 348.79 611.62 315.66 C 611.62 282.52 638.48 255.66 671.62 255.66 C 704.75 255.66 731.62 282.52 731.62 315.66 Z" fill="#5a78ec" fill-rule="nonzero" group-id="7,29,46" node-id="563" stroke="none" target-height="120.000015" target-width="120" target-x="611.615" target-y="255.657"></path><g clip-path="url(#SVGID_4_)" group-id="7,29,47" node-id="566"><path d="M 600.62 296.66 C 600.62 296.66 628.62 272.66 622.62 297.66 C 616.62 322.66 626.62 373.66 658.62 328.66 C 690.62 283.66 707.62 260.66 701.62 294.66 C 695.62 328.66 700.62 356.66 714.62 326.66 C 728.62 296.66 720.62 272.66 720.62 272.66 L 743.62 337.66 L 714.62 372.66 L 621.62 388.66 L 600.62 296.66 Z" fill="#262e49" fill-rule="nonzero" group-id="7,29,47" node-id="568" stroke="none" target-height="128" target-width="143" target-x="600.615" target-y="260.657"></path></g><path d="M 656.62 276.16 C 656.62 280.30 653.26 283.66 649.12 283.66 C 644.97 283.66 641.62 280.30 641.62 276.16 C 641.62 272.01 644.97 268.66 649.12 268.66 C 653.26 268.66 656.62 272.01 656.62 276.16 Z" fill="#ffffff" fill-rule="nonzero" group-id="7,30" node-id="573" stroke="none" target-height="15" target-width="15" target-x="641.615" target-y="268.657"></path><path d="M 718.12 287.66 C 718.12 289.59 716.55 291.16 714.62 291.16 C 712.68 291.16 711.12 289.59 711.12 287.66 C 711.12 285.72 712.68 284.16 714.62 284.16 C 716.55 284.16 718.12 285.72 718.12 287.66 Z" fill="none" group-id="7,30" node-id="575" stroke="#ffffff" stroke-linecap="butt" stroke-width="1" target-height="7" target-width="7" target-x="711.115" target-y="284.157"></path><path d="M 714.12 310.66 C 714.12 313.69 711.65 316.16 708.62 316.16 C 705.58 316.16 703.12 313.69 703.12 310.66 C 703.12 307.62 705.58 305.16 708.62 305.16 C 711.65 305.16 714.12 307.62 714.12 310.66 Z" fill="#ffffff" fill-rule="nonzero" group-id="7,30" node-id="577" stroke="none" target-height="11" target-width="11" target-x="703.115" target-y="305.157"></path><path d="M 670.12 345.16 C 670.12 347.92 667.88 350.16 665.12 350.16 C 662.35 350.16 660.12 347.92 660.12 345.16 C 660.12 342.40 662.35 340.16 665.12 340.16 C 667.88 340.16 670.12 342.40 670.12 345.16 Z" fill="#ffd840" fill-rule="nonzero" group-id="7,30" node-id="579" stroke="none" target-height="10" target-width="10" target-x="660.115" target-y="340.157"></path><path d="M 648.38 370.99 C 633.59 376.68 621.53 377.00 616.17 370.60 C 606.24 358.74 623.01 328.34 653.64 302.69 C 684.26 277.04 717.13 265.86 727.06 277.72 C 730.45 281.76 730.73 287.97 728.41 295.41 C 728.41 295.41 731.62 305.66 731.62 311.66 C 731.62 326.66 729.15 332.74 729.15 332.74 C 760.95 298.01 775.66 263.33 762.71 247.87 C 746.40 228.39 692.39 246.76 642.08 288.89 C 630.67 298.45 620.44 308.40 611.62 318.31 C 581.53 352.11 567.91 385.39 580.52 400.45 C 594.67 417.34 637.15 405.77 681.00 374.93 C 681.00 374.93 677.53 376.52 662.62 374.66 C 654.62 373.66 648.38 370.99 648.38 370.99 Z" fill="#ffd840" fill-rule="nonzero" group-id="7,30" node-id="581" stroke="none" target-height="188.94899" target-width="207.75403" target-x="567.909" target-y="228.39"></path><path d="M 647.17 295.06 C 647.03 295.06 646.89 295.00 646.79 294.89 C 646.61 294.68 646.64 294.36 646.85 294.18 C 665.30 278.68 685.21 267.13 702.91 261.67 C 720.74 256.17 734.24 257.50 740.90 265.44 C 745.24 270.60 746.35 278.31 744.12 287.75 C 744.05 288.01 743.78 288.18 743.51 288.12 C 743.24 288.05 743.08 287.78 743.14 287.51 C 745.30 278.40 744.26 270.99 740.14 266.08 C 733.75 258.47 720.63 257.25 703.20 262.62 C 685.63 268.04 665.85 279.52 647.49 294.95 C 647.40 295.03 647.28 295.06 647.17 295.06 Z" fill="#232323" fill-rule="nonzero" group-id="7,30" node-id="583" stroke="none" target-height="38.899994" target-width="99.742004" target-x="646.61" target-y="256.165"></path><path d="M 618.43 324.65 C 618.33 324.65 618.22 324.62 618.13 324.55 C 617.91 324.38 617.87 324.07 618.04 323.85 C 620.91 320.14 624.07 316.39 627.43 312.73 C 627.62 312.53 627.93 312.51 628.14 312.70 C 628.34 312.89 628.35 313.20 628.17 313.41 C 624.83 317.05 621.69 320.77 618.83 324.46 C 618.73 324.59 618.59 324.65 618.43 324.65 Z" fill="#232323" fill-rule="nonzero" group-id="7,30" node-id="585" stroke="none" target-height="12.143005" target-width="10.482056" target-x="617.871" target-y="312.512"></path><path d="M 621.02 388.95 C 612.73 388.95 606.28 386.58 602.33 381.88 C 595.31 373.53 596.75 359.18 606.38 341.48 C 606.52 341.24 606.82 341.15 607.06 341.28 C 607.31 341.41 607.40 341.72 607.26 341.96 C 597.98 359.02 596.46 373.34 603.09 381.23 C 610.12 389.59 625.53 390.19 645.37 382.88 C 645.63 382.78 645.92 382.92 646.01 383.18 C 646.11 383.43 645.98 383.72 645.72 383.82 C 636.42 387.25 628.05 388.95 621.02 388.95 Z" fill="#232323" fill-rule="nonzero" group-id="7,30" node-id="587" stroke="none" target-height="49.045013" target-width="50.796997" target-x="595.312" target-y="341.149"></path><path d="M 816.75 348.51 C 816.75 348.51 827.74 361.45 845.93 359.15 C 845.93 359.15 837.68 343.09 816.75 348.51 Z" fill="#adcd55" fill-rule="nonzero" node-id="591" stroke="none" target-height="18.362" target-width="29.179016" target-x="816.752" target-y="343.089"></path><path d="M 632.65 654.73 L 510.35 598.75 C 509.12 598.18 508.57 596.71 509.14 595.48 L 514.11 588.73 C 514.68 587.50 516.15 586.95 517.38 587.51 L 638.27 642.97 C 639.50 643.53 640.05 645.00 639.48 646.23 L 635.92 653.51 C 635.35 654.75 633.88 655.29 632.65 654.73 Z" fill="#ffffff" fill-rule="nonzero" node-id="593" stroke="none" target-height="68.343994" target-width="131.478" target-x="508.571" target-y="586.948"></path><path d="M 579.57 671.43 L 489.59 623.76 C 488.40 623.13 487.94 621.63 488.57 620.43 L 492.99 615.11 C 493.62 613.91 495.12 613.46 496.32 614.09 L 587.41 660.02 C 588.61 660.66 589.07 662.16 588.43 663.36 L 582.91 670.41 C 582.27 671.61 580.77 672.07 579.57 671.43 Z" fill="#ffffff" fill-rule="nonzero" node-id="595" stroke="none" target-height="58.61499" target-width="101.13501" target-x="487.937" target-y="613.455"></path><path d="M 757.11 557.83 L 664.08 516.44 C 662.84 515.89 662.28 514.42 662.83 513.18 L 666.87 507.58 C 667.42 506.34 668.89 505.78 670.12 506.33 L 764.15 545.91 C 765.39 546.46 765.95 547.93 765.40 549.17 L 760.37 556.59 C 759.82 557.83 758.35 558.39 757.11 557.83 Z" fill="#ffffff" fill-rule="nonzero" node-id="597" stroke="none" target-height="52.60797" target-width="103.677" target-x="662.277" target-y="505.778"></path><path d="M 853.81 489.01 L 779.72 463.18 C 778.74 462.83 778.30 461.50 778.75 460.22 L 782.00 454.19 C 782.45 452.91 783.62 452.15 784.61 452.49 L 859.50 476.42 C 860.49 476.77 860.93 478.10 860.48 479.38 L 856.42 487.31 C 855.97 488.59 854.80 489.35 853.81 489.01 Z" fill="#ffffff" fill-rule="nonzero" node-id="599" stroke="none" target-height="37.205017" target-width="82.632996" target-x="778.297" target-y="452.146"></path><path d="M 857.39 522.62 L 759.56 483.43 C 758.29 482.89 757.68 481.43 758.21 480.18 L 762.92 475.42 C 763.44 474.17 764.91 473.58 766.18 474.12 L 863.20 510.71 C 864.47 511.25 865.07 512.71 864.54 513.96 L 860.66 521.32 C 860.13 522.57 858.66 523.16 857.39 522.62 Z" fill="#ffffff" fill-rule="nonzero" node-id="601" stroke="none" target-height="49.574005" target-width="107.388" target-x="757.684" target-y="473.584"></path><path d="M 735.82 584.94 L 642.93 543.24 C 641.69 542.68 641.13 541.22 641.69 539.98 L 645.75 534.38 C 646.30 533.15 647.77 532.59 649.01 533.15 L 742.90 573.04 C 744.14 573.60 744.70 575.07 744.14 576.30 L 739.08 583.71 C 738.53 584.94 737.06 585.50 735.82 584.94 Z" fill="#ffffff" fill-rule="nonzero" node-id="603" stroke="none" target-height="52.90802" target-width="103.56305" target-x="641.134" target-y="532.592"></path><path d="M 556.00 697.69 L 466.02 650.02 C 464.82 649.39 464.36 647.89 465.00 646.69 L 469.41 641.37 C 470.05 640.17 471.55 639.71 472.74 640.35 L 563.84 686.28 C 565.04 686.92 565.50 688.42 564.86 689.62 L 559.33 696.67 C 558.69 697.87 557.19 698.33 556.00 697.69 Z" fill="#ffffff" fill-rule="nonzero" node-id="605" stroke="none" target-height="58.616028" target-width="101.13501" target-x="464.36" target-y="639.714"></path><path d="M 464.71 690.26 C 464.71 701.53 455.57 710.67 444.30 710.67 C 433.03 710.67 423.89 701.53 423.89 690.26 C 423.89 678.99 433.03 669.85 444.30 669.85 C 455.57 669.85 464.71 678.99 464.71 690.26 Z" fill="#ffffff" fill-rule="nonzero" node-id="607" stroke="none" target-height="40.820007" target-width="40.820007" target-x="423.891" target-y="669.849"></path><path d="M 626.70 557.48 L 711.65 602.20" fill="none" node-id="609" stroke="#ffffff" stroke-linecap="butt" stroke-width="1" target-height="44.718994" target-width="84.948" target-x="626.699" target-y="557.481"></path><path d="M 611.00 565.42 L 653.61 587.52" fill="none" node-id="611" stroke="#ffffff" stroke-linecap="butt" stroke-width="1" target-height="22.100037" target-width="42.608948" target-x="610.999" target-y="565.42"></path><path d="M 659.14 590.39 L 671.09 595.83" fill="none" node-id="613" stroke="#ffffff" stroke-linecap="butt" stroke-width="1" target-height="5.440979" target-width="11.95697" target-x="659.137" target-y="590.392"></path><path d="M 598.91 575.14 L 663.12 610.42" fill="none" node-id="615" stroke="#ffffff" stroke-linecap="butt" stroke-width="1" target-height="35.276" target-width="64.211" target-x="598.914" target-y="575.145"></path><path d="M 901.09 529.43 L 895.72 523.03 C 895.25 522.47 894.52 522.17 893.78 522.24 L 885.47 523.04 C 883.60 523.22 882.34 521.18 883.34 519.59 L 887.76 512.51 C 888.15 511.88 888.21 511.09 887.91 510.41 L 884.59 502.75 C 883.84 501.04 885.39 499.21 887.20 499.66 L 895.30 501.68 C 896.03 501.86 896.79 501.67 897.35 501.18 L 903.60 495.65 C 905.00 494.41 907.22 495.31 907.35 497.18 L 907.94 505.51 C 907.99 506.25 908.40 506.92 909.04 507.30 L 916.24 511.54 C 917.85 512.49 917.67 514.88 915.94 515.58 L 908.20 518.71 C 907.51 518.99 907.00 519.59 906.84 520.32 L 905.03 528.47 C 904.62 530.29 902.30 530.86 901.09 529.43 Z" fill="none" node-id="617" stroke="#ffffff" stroke-linecap="butt" stroke-width="2" target-height="36.453003" target-width="35.505005" target-x="882.344" target-y="494.409"></path><path d="M 345.34 720.89 C 344.92 720.89 344.52 720.62 344.39 720.19 C 344.22 719.67 344.51 719.10 345.04 718.94 C 345.24 718.88 365.53 712.32 398.19 688.23 C 428.33 665.99 475.48 623.84 528.89 549.33 L 529.34 548.70 L 530.07 548.98 L 729.04 627.74 L 728.61 628.70 C 728.39 629.20 705.53 679.28 657.24 717.64 C 656.80 717.98 656.18 717.91 655.83 717.48 C 655.49 717.05 655.56 716.42 655.99 716.08 C 700.23 680.94 722.95 635.90 726.34 628.83 L 530.06 551.13 C 476.63 625.53 429.45 667.67 399.25 689.93 C 366.36 714.17 345.85 720.78 345.64 720.85 C 345.54 720.88 345.44 720.89 345.34 720.89 Z" fill="#232323" fill-rule="nonzero" node-id="619" stroke="none" target-height="172.19604" target-width="384.81903" target-x="344.222" target-y="548.696"></path><path d="M 722.99 677.54 C 722.56 677.54 722.16 677.26 722.03 676.83 C 721.87 676.30 722.17 675.74 722.70 675.58 C 782.19 657.59 816.26 620.85 834.36 593.20 C 852.02 566.24 858.35 542.43 859.48 537.72 L 680.47 472.62 C 634.74 551.32 600.57 559.70 599.13 560.02 C 598.59 560.14 598.06 559.80 597.94 559.26 C 597.82 558.73 598.16 558.19 598.69 558.07 C 599.04 557.99 633.76 549.33 679.16 470.89 L 679.58 470.16 L 680.37 470.45 L 861.81 536.44 L 861.63 537.29 C 861.58 537.55 855.90 563.93 836.08 594.23 C 817.80 622.18 783.38 659.32 723.28 677.50 C 723.18 677.52 723.09 677.54 722.99 677.54 Z" fill="#232323" fill-rule="nonzero" node-id="621" stroke="none" target-height="207.37604" target-width="263.995" target-x="597.817" target-y="470.162"></path><path d="M 848.46 626.66 C 848.11 626.66 847.77 626.47 847.58 626.14 C 847.32 625.66 847.49 625.05 847.97 624.78 C 904.70 593.30 939.20 552.99 958.15 524.72 C 976.29 497.67 984.02 476.24 985.62 471.46 L 796.37 423.49 C 779.98 458.73 751.24 478.01 750.95 478.20 C 750.49 478.50 749.87 478.38 749.57 477.92 C 749.26 477.46 749.39 476.84 749.85 476.53 C 750.14 476.34 778.82 457.08 794.90 421.90 L 795.25 421.14 L 796.06 421.34 L 988.16 470.04 L 987.86 471.04 C 987.79 471.27 980.50 494.98 959.82 525.83 C 940.74 554.29 906.02 594.86 848.95 626.53 C 848.79 626.62 848.62 626.66 848.46 626.66 Z" fill="#232323" fill-rule="nonzero" node-id="623" stroke="none" target-height="205.521" target-width="238.89801" target-x="749.264" target-y="421.138"></path></svg>